<svg width="330" height="90" viewBox="0 0 330 90" fill="none" xmlns="http://www.w3.org/2000/svg">
<path d="M3.38883 48.1818C1.51723 46.3102 1.51723 43.2757 3.38883 41.4041L41.4043 3.38868C43.2759 1.51708 46.3103 1.51708 48.1819 3.38868L86.1974 41.4041C88.069 43.2757 88.069 46.3102 86.1974 48.1818L48.1819 86.1973C46.3103 88.0689 43.2759 88.0689 41.4043 86.1973L3.38883 48.1818Z" fill="black"/>
<path d="M35.6291 76.1369C33.7575 74.2653 33.7575 71.2308 35.6291 69.3592L41.3761 63.6121C43.2477 61.7405 46.2822 61.7405 48.1538 63.6121L53.9009 69.3592C55.7725 71.2308 55.7725 74.2653 53.9009 76.1369L48.1538 81.8839C46.2822 83.7555 43.2477 83.7555 41.3761 81.8839L35.6291 76.1369Z" fill="#FFDD00"/>
<path d="M49.6447 62.1213C47.7731 60.2497 47.7731 57.2152 49.6447 55.3436L55.3918 49.5965C57.2634 47.7249 60.2978 47.7249 62.1694 49.5965L67.9165 55.3436C69.7881 57.2152 69.7881 60.2497 67.9165 62.1213L62.1694 67.8683C60.2978 69.7399 57.2634 69.7399 55.3918 67.8683L49.6447 62.1213Z" fill="#FFDD00"/>
<path d="M63.6603 48.1056C61.7887 46.234 61.7887 43.1996 63.6603 41.328L69.4074 35.5809C71.279 33.7093 74.3134 33.7093 76.185 35.5809L81.9321 41.328C83.8037 43.1996 83.8037 46.234 81.9321 48.1056L76.185 53.8527C74.3134 55.7243 71.279 55.7243 69.4074 53.8527L63.6603 48.1056Z" fill="#FFDD00"/>
<path d="M21.6447 62.1525C19.7731 60.2809 19.7731 57.2464 21.6447 55.3748L27.3918 49.6278C29.2634 47.7562 32.2978 47.7562 34.1694 49.6278L39.9165 55.3748C41.7881 57.2464 41.7881 60.2809 39.9165 62.1525L34.1694 67.8996C32.2978 69.7712 29.2634 69.7712 27.3918 67.8996L21.6447 62.1525Z" fill="#FFDD00"/>
<path d="M35.6598 48.1369C33.7882 46.2653 33.7882 43.2308 35.6598 41.3592L41.4069 35.6121C43.2785 33.7405 46.313 33.7405 48.1846 35.6121L53.9316 41.3592C55.8032 43.2308 55.8032 46.2653 53.9316 48.1369L48.1846 53.8839C46.313 55.7555 43.2785 55.7555 41.4069 53.8839L35.6598 48.1369Z" fill="#0057B7"/>
<path d="M49.6759 34.1213C47.8043 32.2497 47.8043 29.2152 49.6759 27.3436L55.423 21.5965C57.2946 19.7249 60.3291 19.7249 62.2007 21.5965L67.9477 27.3436C69.8193 29.2152 69.8193 32.2497 67.9477 34.1213L62.2007 39.8683C60.3291 41.7399 57.2946 41.7399 55.423 39.8683L49.6759 34.1213Z" fill="#FFDD00"/>
<path d="M7.65982 48.1681C5.78823 46.2965 5.78823 43.2621 7.65983 41.3905L13.4069 35.6434C15.2785 33.7718 18.313 33.7718 20.1846 35.6434L25.9316 41.3905C27.8032 43.2621 27.8032 46.2965 25.9316 48.1681L20.1846 53.9152C18.313 55.7868 15.2785 55.7868 13.4069 53.9152L7.65982 48.1681Z" fill="#0057B7"/>
<path d="M21.6754 34.1525C19.8039 32.2809 19.8039 29.2464 21.6755 27.3748L27.4225 21.6278C29.2941 19.7562 32.3286 19.7562 34.2002 21.6278L39.9473 27.3748C41.8189 29.2464 41.8189 32.2809 39.9473 34.1525L34.2002 39.8996C32.3286 41.7712 29.2941 41.7712 27.4225 39.8996L21.6754 34.1525Z" fill="#0057B7"/>
<path d="M35.6916 20.1369C33.82 18.2653 33.82 15.2308 35.6916 13.3592L41.4386 7.61215C43.3102 5.74055 46.3447 5.74055 48.2163 7.61215L53.9634 13.3592C55.835 15.2308 55.835 18.2653 53.9634 20.1369L48.2163 25.8839C46.3447 27.7555 43.3102 27.7555 41.4386 25.8839L35.6916 20.1369Z" fill="#0057B7"/>
<path d="M97.5 51.5H327.812L321.5 58.5H107L97.5 51.5Z" fill="#FFDD00"/>
<path d="M112.331 31.4941H117.972V49.0222C117.972 50.9902 117.508 52.7123 116.578 54.1883C115.658 55.6644 114.368 56.8153 112.709 57.6412C111.05 58.4583 109.117 58.8668 106.911 58.8668C104.697 58.8668 102.76 58.4583 101.101 57.6412C99.442 56.8153 98.1522 55.6644 97.2316 54.1883C96.3109 52.7123 95.8506 50.9902 95.8506 49.0222V31.4941H101.492V48.5345C101.492 49.5625 101.713 50.4762 102.156 51.2758C102.608 52.0753 103.242 52.7035 104.058 53.1604C104.875 53.6172 105.826 53.8457 106.911 53.8457C108.006 53.8457 108.957 53.6172 109.765 53.1604C110.581 52.7035 111.211 52.0753 111.654 51.2758C112.105 50.4762 112.331 49.5625 112.331 48.5345V31.4941Z" fill="black"/>
<path d="M128.059 46.7817V58.4847H122.509V38.2418H127.799V41.8133H128.033C128.476 40.6359 129.219 39.7046 130.261 39.0193C131.303 38.3252 132.567 37.9782 134.052 37.9782C135.442 37.9782 136.653 38.2857 137.687 38.9007C138.72 39.5157 139.524 40.3943 140.097 41.5365C140.67 42.6699 140.957 44.0229 140.957 45.5956V58.4847H135.407V46.5972C135.416 45.3584 135.103 44.392 134.469 43.6979C133.835 42.995 132.962 42.6435 131.85 42.6435C131.103 42.6435 130.443 42.8061 129.87 43.1312C129.305 43.4562 128.863 43.9307 128.541 44.5545C128.228 45.1695 128.068 45.9119 128.059 46.7817Z" fill="black"/>
<path d="M145.331 58.4847V38.2418H150.881V58.4847H145.331Z" fill="black"/>
<path d="M165.971 38.2418V42.459H153.92V38.2418H165.971ZM156.656 33.3919H162.206V52.2642C162.206 52.7826 162.284 53.1867 162.44 53.4767C162.596 53.7578 162.814 53.9555 163.091 54.0697C163.378 54.1839 163.708 54.241 164.082 54.241C164.342 54.241 164.603 54.2191 164.863 54.1751C165.124 54.1224 165.324 54.0829 165.463 54.0565L166.335 58.2343C166.058 58.3221 165.667 58.4232 165.163 58.5374C164.659 58.6604 164.047 58.7351 163.326 58.7614C161.988 58.8141 160.816 58.634 159.808 58.2211C158.81 57.8081 158.032 57.1668 157.476 56.297C156.921 55.4271 156.647 54.3289 156.656 53.0022V33.3919Z" fill="black"/>
<path d="M178.491 58.88C176.432 58.88 174.66 58.4583 173.175 57.6149C171.699 56.7626 170.561 55.5589 169.762 54.0038C168.963 52.4399 168.563 50.5905 168.563 48.4555C168.563 46.3732 168.963 44.5457 169.762 42.973C170.561 41.4003 171.686 40.1747 173.136 39.2961C174.595 38.4175 176.306 37.9782 178.269 37.9782C179.589 37.9782 180.818 38.1934 181.956 38.624C183.103 39.0457 184.101 39.6827 184.952 40.5349C185.812 41.3872 186.481 42.459 186.959 43.7506C187.436 45.0333 187.675 46.5357 187.675 48.2578V49.7997H170.778V46.3205H182.451C182.451 45.5122 182.277 44.7961 181.93 44.1723C181.583 43.5485 181.101 43.0609 180.484 42.7094C179.876 42.3492 179.168 42.1691 178.36 42.1691C177.518 42.1691 176.771 42.3668 176.119 42.7622C175.477 43.1487 174.973 43.6715 174.608 44.3305C174.243 44.9806 174.057 45.7055 174.048 46.505V49.8129C174.048 50.8145 174.23 51.6799 174.595 52.4092C174.969 53.1384 175.494 53.7007 176.172 54.0961C176.849 54.4914 177.652 54.6891 178.582 54.6891C179.198 54.6891 179.763 54.6013 180.275 54.4255C180.788 54.2498 181.226 53.9862 181.591 53.6348C181.956 53.2834 182.234 52.8528 182.425 52.3433L187.558 52.6859C187.298 53.9335 186.763 55.023 185.956 55.9543C185.157 56.8768 184.123 57.5973 182.855 58.1157C181.596 58.6252 180.141 58.88 178.491 58.88Z" fill="black"/>
<path d="M198.671 58.8141C197.151 58.8141 195.774 58.4188 194.541 57.628C193.316 56.8285 192.344 55.6556 191.623 54.1092C190.911 52.5541 190.555 50.6476 190.555 48.3896C190.555 46.0701 190.924 44.1416 191.662 42.604C192.4 41.0577 193.382 39.9023 194.606 39.1379C195.84 38.3648 197.19 37.9782 198.658 37.9782C199.778 37.9782 200.712 38.1715 201.459 38.5581C202.215 38.9359 202.823 39.4103 203.283 39.9814C203.752 40.5437 204.108 41.0972 204.351 41.6419H204.521V31.4941H210.057V58.4847H204.586V55.2426H204.351C204.091 55.8049 203.722 56.3628 203.244 56.9164C202.775 57.4611 202.163 57.9136 201.407 58.2738C200.66 58.634 199.748 58.8141 198.671 58.8141ZM200.43 54.3465C201.324 54.3465 202.08 54.1005 202.697 53.6084C203.322 53.1076 203.8 52.4092 204.13 51.513C204.468 50.6168 204.638 49.5669 204.638 48.3632C204.638 47.1595 204.473 46.114 204.143 45.2266C203.813 44.3392 203.335 43.6539 202.71 43.1707C202.084 42.6875 201.324 42.4459 200.43 42.4459C199.518 42.4459 198.749 42.6963 198.124 43.1971C197.498 43.6979 197.025 44.392 196.704 45.2793C196.382 46.1667 196.222 47.1947 196.222 48.3632C196.222 49.5405 196.382 50.5817 196.704 51.4866C197.034 52.3828 197.507 53.0857 198.124 53.5953C198.749 54.0961 199.518 54.3465 200.43 54.3465Z" fill="black"/>
<path d="M213.709 36.199V31.4941H235.622V36.199H227.453V58.4847H221.877V36.199H213.709Z" fill="black"/>
<path d="M245.344 58.88C243.285 58.88 241.514 58.4583 240.028 57.6149C238.552 56.7626 237.414 55.5589 236.615 54.0038C235.816 52.4399 235.417 50.5905 235.417 48.4555C235.417 46.3732 235.816 44.5457 236.615 42.973C237.414 41.4003 238.539 40.1747 239.989 39.2961C241.449 38.4175 243.16 37.9782 245.122 37.9782C246.443 37.9782 247.672 38.1934 248.809 38.624C249.956 39.0457 250.955 39.6827 251.806 40.5349C252.666 41.3872 253.334 42.459 253.812 43.7506C254.29 45.0333 254.529 46.5357 254.529 48.2578V49.7997H237.631V46.3205H249.304C249.304 45.5122 249.131 44.7961 248.783 44.1723C248.436 43.5485 247.954 43.0609 247.337 42.7094C246.729 42.3492 246.021 42.1691 245.214 42.1691C244.371 42.1691 243.624 42.3668 242.973 42.7622C242.33 43.1487 241.826 43.6715 241.462 44.3305C241.097 44.9806 240.91 45.7055 240.901 46.505V49.8129C240.901 50.8145 241.084 51.6799 241.449 52.4092C241.822 53.1384 242.347 53.7007 243.025 54.0961C243.702 54.4914 244.506 54.6891 245.435 54.6891C246.052 54.6891 246.616 54.6013 247.129 54.4255C247.641 54.2498 248.08 53.9862 248.445 53.6348C248.809 53.2834 249.087 52.8528 249.278 52.3433L254.411 52.6859C254.151 53.9335 253.617 55.023 252.809 55.9543C252.01 56.8768 250.976 57.5973 249.708 58.1157C248.449 58.6252 246.994 58.88 245.344 58.88Z" fill="black"/>
<path d="M263.857 58.8668C262.58 58.8668 261.442 58.6428 260.443 58.1947C259.445 57.7379 258.654 57.0657 258.072 56.1783C257.499 55.2822 257.212 54.1664 257.212 52.8309C257.212 51.7063 257.417 50.7618 257.825 49.9974C258.233 49.233 258.789 48.618 259.492 48.1524C260.196 47.6867 260.995 47.3353 261.889 47.098C262.793 46.8608 263.739 46.6939 264.73 46.5972C265.893 46.4742 266.831 46.36 267.544 46.2546C268.256 46.1404 268.773 45.9734 269.094 45.7538C269.415 45.5341 269.576 45.2091 269.576 44.7785V44.6995C269.576 43.8648 269.315 43.219 268.794 42.7622C268.282 42.3053 267.552 42.0768 266.606 42.0768C265.607 42.0768 264.812 42.3009 264.221 42.749C263.631 43.1883 263.24 43.7418 263.049 44.4095L257.916 43.9878C258.176 42.7578 258.689 41.6947 259.453 40.7985C260.218 39.8935 261.203 39.1994 262.411 38.7162C263.627 38.2242 265.034 37.9782 266.632 37.9782C267.743 37.9782 268.807 38.11 269.824 38.3736C270.848 38.6371 271.756 39.0457 272.546 39.5992C273.345 40.1527 273.975 40.8644 274.435 41.7342C274.896 42.5952 275.126 43.6276 275.126 44.8313V58.4847H269.863V55.6775H269.706C269.385 56.3101 268.955 56.868 268.417 57.3513C267.878 57.8257 267.231 58.1991 266.475 58.4715C265.72 58.7351 264.847 58.8668 263.857 58.8668ZM265.446 54.9922C266.263 54.9922 266.983 54.8297 267.609 54.5046C268.234 54.1707 268.725 53.7227 269.081 53.1604C269.437 52.5981 269.615 51.9611 269.615 51.2494V49.1012C269.441 49.2155 269.203 49.3209 268.899 49.4175C268.603 49.5054 268.269 49.5889 267.895 49.6679C267.522 49.7382 267.148 49.8041 266.775 49.8656C266.402 49.9183 266.063 49.9667 265.759 50.0106C265.107 50.1072 264.539 50.261 264.052 50.4719C263.566 50.6827 263.188 50.9683 262.919 51.3285C262.649 51.6799 262.515 52.1192 262.515 52.6464C262.515 53.4108 262.788 53.995 263.336 54.3992C263.891 54.7946 264.595 54.9922 265.446 54.9922Z" fill="black"/>
<path d="M279.432 58.4847V38.2418H284.721V41.8133H284.956C285.372 40.6272 286.067 39.6915 287.04 39.0061C288.013 38.3208 289.177 37.9782 290.532 37.9782C291.904 37.9782 293.072 38.3252 294.036 39.0193C295 39.7046 295.643 40.6359 295.964 41.8133H296.173C296.581 40.6535 297.319 39.7266 298.387 39.0325C299.464 38.3296 300.737 37.9782 302.205 37.9782C304.072 37.9782 305.588 38.58 306.751 39.7837C307.924 40.9786 308.51 42.6743 308.51 44.8708V58.4847H302.973V45.9778C302.973 44.8532 302.678 44.0098 302.087 43.4475C301.497 42.8852 300.759 42.604 299.873 42.604C298.865 42.604 298.079 42.9291 297.515 43.5793C296.95 44.2206 296.668 45.0685 296.668 46.1228V58.4847H291.287V45.8592C291.287 44.8664 291.005 44.0757 290.44 43.487C289.885 42.8983 289.151 42.604 288.239 42.604C287.622 42.604 287.066 42.7622 286.571 43.0785C286.085 43.386 285.698 43.8209 285.412 44.3832C285.125 44.9367 284.982 45.5868 284.982 46.3337V58.4847H279.432Z" fill="black"/>
<path d="M329.544 44.0142L324.463 44.3305C324.376 43.8912 324.189 43.4958 323.903 43.1443C323.616 42.7841 323.238 42.4986 322.769 42.2877C322.309 42.0681 321.758 41.9582 321.115 41.9582C320.255 41.9582 319.53 42.1427 318.939 42.5118C318.349 42.872 318.053 43.3552 318.053 43.9614C318.053 44.4447 318.244 44.8532 318.627 45.1871C319.009 45.521 319.664 45.7889 320.594 45.991L324.216 46.729C326.161 47.1332 327.611 47.7833 328.567 48.6795C329.522 49.5757 330 50.753 330 52.2115C330 53.5382 329.613 54.7023 328.84 55.7039C328.076 56.7055 327.025 57.4875 325.688 58.0498C324.359 58.6033 322.826 58.88 321.089 58.88C318.44 58.88 316.329 58.3221 314.757 57.2063C313.194 56.0817 312.278 54.5529 312.008 52.62L317.467 52.3301C317.632 53.1472 318.032 53.771 318.666 54.2015C319.3 54.6232 320.112 54.8341 321.102 54.8341C322.075 54.8341 322.856 54.6452 323.447 54.2674C324.046 53.8808 324.35 53.3844 324.359 52.7782C324.35 52.2686 324.137 51.8512 323.72 51.5262C323.304 51.1923 322.661 50.9375 321.792 50.7618L318.327 50.0633C316.373 49.6679 314.918 48.9826 313.962 48.0074C313.016 47.0321 312.542 45.7889 312.542 44.2777C312.542 42.9774 312.89 41.8572 313.585 40.9171C314.288 39.977 315.274 39.2522 316.542 38.7426C317.819 38.233 319.313 37.9782 321.024 37.9782C323.551 37.9782 325.54 38.5185 326.99 39.5992C328.45 40.6799 329.301 42.1515 329.544 44.0142Z" fill="black"/>
<path d="M143.837 30.8936L148.183 26.5474L152.529 30.8936L148.183 35.2397L143.837 30.8936Z" fill="#0057B7"/>
</svg>
