<svg width="432" height="131" viewBox="0 0 432 131" fill="none" xmlns="http://www.w3.org/2000/svg">
<rect y="65.4248" width="92.5251" height="92.5251" rx="7" transform="rotate(-45 0 65.4248)" fill="black"/>
<rect x="47.0898" y="106.257" width="25.8712" height="25.8712" rx="7" transform="rotate(-45 47.0898 106.257)" fill="#FFDD00"/>
<rect x="67.561" y="85.7852" width="25.8712" height="25.8712" rx="7" transform="rotate(-45 67.561 85.7852)" fill="#FFDD00"/>
<rect x="88.0327" y="65.3135" width="25.8712" height="25.8712" rx="7" transform="rotate(-45 88.0327 65.3135)" fill="#FFDD00"/>
<rect x="26.6641" y="85.8311" width="25.8712" height="25.8712" rx="7" transform="rotate(-45 26.6641 85.8311)" fill="#FFDD00"/>
<rect x="47.1353" y="65.3594" width="25.8712" height="25.8712" rx="7" transform="rotate(-45 47.1353 65.3594)" fill="#0057B7"/>
<rect x="67.6069" y="44.8877" width="25.8712" height="25.8712" rx="7" transform="rotate(-45 67.6069 44.8877)" fill="#FFDD00"/>
<rect x="6.23828" y="65.4053" width="25.8712" height="25.8712" rx="7" transform="rotate(-45 6.23828 65.4053)" fill="#0057B7"/>
<rect x="26.7095" y="44.9336" width="25.8712" height="25.8712" rx="7" transform="rotate(-45 26.7095 44.9336)" fill="#0057B7"/>
<rect x="47.1812" y="24.4629" width="25.8712" height="25.8712" rx="7" transform="rotate(-45 47.1812 24.4629)" fill="#0057B7"/>
<rect x="139.885" y="73.7568" width="289.876" height="7.60165" fill="#FFDD00"/>
<path d="M160.288 48.2812H167.271V69.776C167.271 72.1894 166.696 74.3012 165.545 76.1112C164.406 77.9213 162.809 79.3328 160.755 80.3455C158.702 81.3476 156.309 81.8486 153.578 81.8486C150.836 81.8486 148.438 81.3476 146.385 80.3455C144.331 79.3328 142.734 77.9213 141.594 76.1112C140.455 74.3012 139.885 72.1894 139.885 69.776V48.2812H146.868V69.178C146.868 70.4386 147.143 71.5591 147.691 72.5396C148.25 73.52 149.035 74.2904 150.046 74.8507C151.057 75.4109 152.234 75.691 153.578 75.691C154.933 75.691 156.11 75.4109 157.11 74.8507C158.121 74.2904 158.9 73.52 159.449 72.5396C160.008 71.5591 160.288 70.4386 160.288 69.178V48.2812Z" fill="black"/>
<path d="M179.759 67.0285V81.3799H172.888V56.5559H179.436V60.9357H179.727C180.275 59.4919 181.194 58.3498 182.485 57.5094C183.775 56.6583 185.339 56.2327 187.178 56.2327C188.898 56.2327 190.398 56.6098 191.678 57.364C192.957 58.1182 193.952 59.1956 194.662 60.5963C195.371 61.9861 195.726 63.6454 195.726 65.574V81.3799H188.855V66.8023C188.866 65.2831 188.479 64.0979 187.694 63.2467C186.909 62.3848 185.829 61.9538 184.452 61.9538C183.528 61.9538 182.71 62.1532 182.001 62.5518C181.302 62.9504 180.753 63.5323 180.356 64.2972C179.968 65.0514 179.77 65.9619 179.759 67.0285Z" fill="black"/>
<path d="M201.141 81.3799V56.5559H208.012V81.3799H201.141Z" fill="black"/>
<path d="M226.693 56.5559V61.7276H211.774V56.5559H226.693ZM215.161 50.6085H222.032V73.7517C222.032 74.3874 222.129 74.883 222.322 75.2385C222.516 75.5833 222.785 75.8257 223.129 75.9658C223.484 76.1059 223.892 76.1759 224.355 76.1759C224.677 76.1759 225 76.149 225.322 76.0951C225.645 76.0304 225.892 75.982 226.064 75.9496L227.145 81.0728C226.801 81.1805 226.317 81.3045 225.693 81.4445C225.07 81.5954 224.312 81.6869 223.419 81.7193C221.763 81.7839 220.312 81.563 219.064 81.0566C217.828 80.5503 216.865 79.7637 216.177 78.6971C215.489 77.6304 215.15 76.2836 215.161 74.6567V50.6085Z" fill="black"/>
<path d="M242.193 81.8647C239.644 81.8647 237.451 81.3476 235.612 80.3132C233.784 79.2681 232.376 77.792 231.387 75.885C230.397 73.9672 229.903 71.6992 229.903 69.081C229.903 66.5275 230.397 64.2865 231.387 62.3579C232.376 60.4293 233.768 58.9263 235.564 57.8488C237.37 56.7714 239.489 56.2327 241.919 56.2327C243.553 56.2327 245.074 56.4966 246.483 57.0246C247.902 57.5418 249.139 58.3229 250.193 59.368C251.257 60.4131 252.085 61.7276 252.676 63.3114C253.268 64.8844 253.564 66.7268 253.564 68.8386V70.7295H232.645V66.4629H247.096C247.096 65.4716 246.881 64.5935 246.451 63.8286C246.021 63.0636 245.424 62.4656 244.66 62.0346C243.908 61.5929 243.032 61.372 242.032 61.372C240.989 61.372 240.064 61.6144 239.257 62.0993C238.462 62.5733 237.838 63.2144 237.386 64.0225C236.935 64.8198 236.704 65.7087 236.693 66.6891V70.7456C236.693 71.9739 236.919 73.0352 237.37 73.9295C237.833 74.8237 238.483 75.5133 239.322 75.9981C240.161 76.483 241.155 76.7254 242.306 76.7254C243.069 76.7254 243.768 76.6176 244.402 76.4022C245.037 76.1867 245.58 75.8634 246.031 75.4325C246.483 75.0015 246.827 74.4736 247.064 73.8486L253.418 74.2688C253.096 75.7988 252.435 77.1348 251.435 78.2769C250.445 79.4082 249.166 80.2917 247.596 80.9274C246.037 81.5523 244.236 81.8647 242.193 81.8647Z" fill="black"/>
<path d="M267.176 81.7839C265.294 81.7839 263.59 81.2991 262.063 80.3294C260.547 79.3489 259.343 77.9106 258.45 76.0143C257.569 74.1072 257.128 71.7692 257.128 69.0002C257.128 66.1558 257.585 63.7908 258.499 61.9053C259.413 60.0091 260.628 58.5922 262.144 57.6549C263.671 56.7067 265.343 56.2327 267.16 56.2327C268.547 56.2327 269.703 56.4697 270.628 56.9438C271.563 57.4071 272.316 57.9889 272.886 58.6892C273.466 59.3788 273.907 60.0576 274.208 60.7256H274.418V48.2812H281.273V81.3799H274.498V77.4042H274.208C273.886 78.0937 273.429 78.7779 272.837 79.4567C272.257 80.1247 271.499 80.6795 270.563 81.1213C269.638 81.563 268.509 81.7839 267.176 81.7839ZM269.353 76.3052C270.461 76.3052 271.396 76.0035 272.16 75.4001C272.934 74.786 273.525 73.9295 273.934 72.8305C274.353 71.7315 274.563 70.444 274.563 68.9679C274.563 67.4918 274.359 66.2097 273.95 65.1215C273.542 64.0333 272.95 63.1929 272.176 62.6003C271.402 62.0077 270.461 61.7114 269.353 61.7114C268.224 61.7114 267.273 62.0185 266.499 62.6326C265.725 63.2467 265.139 64.0979 264.741 65.1861C264.343 66.2743 264.144 67.5349 264.144 68.9679C264.144 70.4116 264.343 71.6884 264.741 72.7982C265.149 73.8971 265.735 74.7591 266.499 75.384C267.273 75.9981 268.224 76.3052 269.353 76.3052Z" fill="black"/>
<path d="M285.793 54.0509V48.2812H312.921V54.0509H302.808V81.3799H295.905V54.0509H285.793Z" fill="black"/>
<path d="M324.957 81.8647C322.409 81.8647 320.215 81.3476 318.376 80.3132C316.549 79.2681 315.14 77.792 314.151 75.885C313.162 73.9672 312.667 71.6992 312.667 69.081C312.667 66.5275 313.162 64.2865 314.151 62.3579C315.14 60.4293 316.532 58.9263 318.328 57.8488C320.135 56.7714 322.253 56.2327 324.683 56.2327C326.317 56.2327 327.839 56.4966 329.247 57.0246C330.667 57.5418 331.903 58.3229 332.957 59.368C334.021 60.4131 334.849 61.7276 335.441 63.3114C336.032 64.8844 336.328 66.7268 336.328 68.8386V70.7295H315.409V66.4629H329.86C329.86 65.4716 329.645 64.5935 329.215 63.8286C328.785 63.0636 328.188 62.4656 327.425 62.0346C326.672 61.5929 325.796 61.372 324.796 61.372C323.753 61.372 322.828 61.6144 322.022 62.0993C321.226 62.5733 320.602 63.2144 320.151 64.0225C319.699 64.8198 319.468 65.7087 319.457 66.6891V70.7456C319.457 71.9739 319.683 73.0352 320.135 73.9295C320.597 74.8237 321.247 75.5133 322.086 75.9981C322.925 76.483 323.919 76.7254 325.07 76.7254C325.833 76.7254 326.532 76.6176 327.167 76.4022C327.801 76.1867 328.344 75.8634 328.796 75.4325C329.247 75.0015 329.591 74.4736 329.828 73.8486L336.183 74.2688C335.86 75.7988 335.199 77.1348 334.199 78.2769C333.209 79.4082 331.93 80.2917 330.36 80.9274C328.801 81.5523 327 81.8647 324.957 81.8647Z" fill="black"/>
<path d="M347.876 81.8486C346.295 81.8486 344.887 81.5738 343.65 81.0243C342.414 80.4641 341.435 79.6398 340.715 78.5516C340.005 77.4526 339.65 76.0843 339.65 74.4466C339.65 73.0675 339.903 71.9093 340.408 70.9719C340.914 70.0345 341.602 69.2803 342.473 68.7093C343.344 68.1383 344.333 67.7073 345.44 67.4164C346.559 67.1255 347.731 66.9208 348.956 66.8023C350.397 66.6514 351.558 66.5114 352.44 66.3821C353.322 66.242 353.962 66.0373 354.359 65.7679C354.757 65.4986 354.956 65.0999 354.956 64.572V64.475C354.956 63.4515 354.634 62.6595 353.989 62.0993C353.354 61.539 352.451 61.2589 351.279 61.2589C350.042 61.2589 349.059 61.5336 348.327 62.0831C347.596 62.6218 347.112 63.3006 346.876 64.1195L340.521 63.6023C340.844 62.0939 341.478 60.7902 342.424 59.6912C343.371 58.5815 344.591 57.7303 346.086 57.1377C347.591 56.5344 349.333 56.2327 351.311 56.2327C352.687 56.2327 354.005 56.3943 355.263 56.7175C356.531 57.0407 357.655 57.5418 358.634 58.2205C359.623 58.8993 360.402 59.772 360.972 60.8387C361.542 61.8946 361.827 63.1605 361.827 64.6366V81.3799H355.311V77.9375H355.118C354.72 78.7132 354.187 79.3974 353.521 79.99C352.854 80.5718 352.053 81.0297 351.118 81.3637C350.182 81.6869 349.102 81.8486 347.876 81.8486ZM349.843 77.0971C350.854 77.0971 351.747 76.8978 352.521 76.4991C353.295 76.0897 353.903 75.5402 354.343 74.8507C354.784 74.1611 355.005 73.38 355.005 72.5072V69.8729C354.79 70.013 354.494 70.1423 354.118 70.2608C353.752 70.3685 353.338 70.4709 352.876 70.5679C352.413 70.6541 351.951 70.7349 351.489 70.8103C351.026 70.8749 350.607 70.9342 350.231 70.9881C349.424 71.1066 348.72 71.2951 348.118 71.5537C347.516 71.8123 347.048 72.1625 346.715 72.6042C346.381 73.0352 346.215 73.5739 346.215 74.2204C346.215 75.1577 346.553 75.8742 347.231 76.3698C347.919 76.8547 348.79 77.0971 349.843 77.0971Z" fill="black"/>
<path d="M367.158 81.3799V56.5559H373.706V60.9357H373.996C374.512 59.4811 375.372 58.3337 376.577 57.4933C377.781 56.6529 379.222 56.2327 380.899 56.2327C382.598 56.2327 384.044 56.6583 385.238 57.5094C386.431 58.3498 387.227 59.4919 387.625 60.9357H387.883C388.388 59.5134 389.302 58.3768 390.625 57.5256C391.958 56.6636 393.533 56.2327 395.35 56.2327C397.662 56.2327 399.539 56.9707 400.979 58.4468C402.431 59.9121 403.157 61.9915 403.157 64.6851V81.3799H396.302V66.0427C396.302 64.6636 395.936 63.6292 395.205 62.9397C394.474 62.2501 393.56 61.9053 392.463 61.9053C391.216 61.9053 390.243 62.304 389.544 63.1013C388.845 63.8878 388.496 64.9275 388.496 66.2204V81.3799H381.835V65.8972C381.835 64.6797 381.485 63.71 380.786 62.9882C380.098 62.2663 379.19 61.9053 378.061 61.9053C377.297 61.9053 376.609 62.0993 375.996 62.4872C375.394 62.8643 374.915 63.3976 374.561 64.0871C374.206 64.7659 374.028 65.5632 374.028 66.479V81.3799H367.158Z" fill="black"/>
<path d="M429.196 63.6346L422.906 64.0225C422.799 63.4838 422.568 62.9989 422.213 62.568C421.858 62.1262 421.39 61.776 420.81 61.5175C420.24 61.2481 419.557 61.1134 418.761 61.1134C417.697 61.1134 416.799 61.3397 416.068 61.7922C415.337 62.234 414.971 62.8265 414.971 63.57C414.971 64.1626 415.208 64.6636 415.681 65.073C416.154 65.4824 416.966 65.811 418.116 66.0588L422.6 66.9639C425.008 67.4595 426.804 68.2568 427.987 69.3558C429.17 70.4547 429.761 71.8985 429.761 73.687C429.761 75.3139 429.282 76.7415 428.325 77.9698C427.379 79.1981 426.078 80.157 424.422 80.8465C422.777 81.5253 420.879 81.8647 418.729 81.8647C415.449 81.8647 412.837 81.1806 410.89 79.8122C408.955 78.4331 407.821 76.5584 407.487 74.188L414.245 73.8325C414.449 74.8345 414.944 75.5995 415.729 76.1274C416.514 76.6446 417.519 76.9032 418.745 76.9032C419.949 76.9032 420.917 76.6715 421.648 76.2082C422.39 75.7341 422.766 75.1254 422.777 74.382C422.766 73.7571 422.503 73.2453 421.987 72.8466C421.471 72.4372 420.675 72.1248 419.6 71.9093L415.31 71.0527C412.89 70.5679 411.089 69.7275 409.907 68.5315C408.735 67.3356 408.149 65.811 408.149 63.9578C408.149 62.3632 408.579 60.9895 409.439 59.8367C410.31 58.6838 411.53 57.795 413.1 57.17C414.681 56.5451 416.53 56.2327 418.648 56.2327C421.777 56.2327 424.24 56.8953 426.035 58.2205C427.842 59.5458 428.895 61.3505 429.196 63.6346Z" fill="black"/>
<rect x="199.333" y="47.1504" width="7.60165" height="7.60165" transform="rotate(-45 199.333 47.1504)" fill="#0057B7"/>
<path d="M332.491 93.3242H331.29C331.2 92.8768 331.038 92.4634 330.804 92.0842C330.574 91.7006 330.284 91.3661 329.935 91.0806C329.585 90.7951 329.189 90.5735 328.746 90.4158C328.303 90.2582 327.823 90.1793 327.308 90.1793C326.481 90.1793 325.727 90.3945 325.045 90.8249C324.367 91.2553 323.824 91.8881 323.415 92.7234C323.01 93.5543 322.808 94.5728 322.808 95.7788C322.808 96.9933 323.01 98.016 323.415 98.8469C323.824 99.6779 324.367 100.309 325.045 100.739C325.727 101.165 326.481 101.378 327.308 101.378C327.823 101.378 328.303 101.299 328.746 101.142C329.189 100.984 329.585 100.765 329.935 100.483C330.284 100.198 330.574 99.8633 330.804 99.4798C331.038 99.0962 331.2 98.6808 331.29 98.2333H332.491C332.385 98.8342 332.185 99.3945 331.891 99.9144C331.601 100.43 331.23 100.882 330.778 101.27C330.331 101.657 329.815 101.96 329.232 102.177C328.648 102.395 328.006 102.503 327.308 102.503C326.208 102.503 325.232 102.228 324.38 101.679C323.528 101.125 322.859 100.345 322.373 99.3391C321.891 98.3335 321.651 97.1467 321.651 95.7788C321.651 94.4109 321.891 93.2241 322.373 92.2184C322.859 91.2127 323.528 90.435 324.38 89.8853C325.232 89.3313 326.208 89.0543 327.308 89.0543C328.006 89.0543 328.648 89.163 329.232 89.3803C329.815 89.5934 330.331 89.896 330.778 90.288C331.23 90.6758 331.601 91.1275 331.891 91.6431C332.185 92.1587 332.385 92.7191 332.491 93.3242ZM338.879 102.529C338.031 102.529 337.281 102.314 336.629 101.883C335.981 101.453 335.474 100.858 335.107 100.1C334.741 99.337 334.558 98.457 334.558 97.4599C334.558 96.4542 334.741 95.57 335.107 94.8072C335.474 94.0401 335.981 93.4435 336.629 93.0174C337.281 92.587 338.031 92.3718 338.879 92.3718C339.727 92.3718 340.475 92.587 341.122 93.0174C341.77 93.4478 342.277 94.0444 342.644 94.8072C343.014 95.57 343.2 96.4542 343.2 97.4599C343.2 98.457 343.017 99.337 342.65 100.1C342.284 100.858 341.774 101.453 341.122 101.883C340.475 102.314 339.727 102.529 338.879 102.529ZM338.879 101.487C339.561 101.487 340.138 101.304 340.611 100.937C341.084 100.571 341.442 100.083 341.685 99.4734C341.932 98.864 342.056 98.1928 342.056 97.4599C342.056 96.7269 341.932 96.0536 341.685 95.44C341.442 94.8263 341.084 94.3342 340.611 93.9634C340.138 93.5927 339.561 93.4073 338.879 93.4073C338.201 93.4073 337.624 93.5927 337.146 93.9634C336.673 94.3342 336.313 94.8263 336.066 95.44C335.823 96.0536 335.702 96.7269 335.702 97.4599C335.702 98.1928 335.823 98.864 336.066 99.4734C336.313 100.083 336.673 100.571 337.146 100.937C337.619 101.304 338.197 101.487 338.879 101.487ZM345.697 102.324V92.506H346.803V94.0146H346.906C347.102 93.5075 347.428 93.109 347.884 92.8192C348.344 92.5252 348.896 92.3782 349.539 92.3782C350.217 92.3782 350.773 92.538 351.207 92.8576C351.646 93.1729 351.974 93.6076 352.192 94.1616H352.275C352.496 93.6161 352.857 93.1836 353.355 92.864C353.858 92.5401 354.467 92.3782 355.183 92.3782C356.095 92.3782 356.815 92.6658 357.344 93.2411C357.872 93.8121 358.136 94.6474 358.136 95.7468V102.324H356.999V95.7468C356.999 94.9712 356.8 94.3896 356.404 94.0018C356.008 93.614 355.486 93.4201 354.838 93.4201C354.088 93.4201 353.511 93.6502 353.106 94.1104C352.701 94.5707 352.499 95.1545 352.499 95.8619V102.324H351.335V95.6445C351.335 94.9798 351.15 94.4428 350.779 94.0337C350.408 93.6246 349.886 93.4201 349.213 93.4201C348.761 93.4201 348.354 93.5309 347.992 93.7525C347.634 93.9741 347.351 94.283 347.142 94.6793C346.938 95.0714 346.835 95.5231 346.835 96.0344V102.324H345.697ZM361.161 102.324V92.506H362.306V102.324H361.161ZM361.743 90.8185C361.509 90.8185 361.308 90.7397 361.142 90.582C360.976 90.4201 360.893 90.2262 360.893 90.0004C360.893 89.7745 360.976 89.5827 361.142 89.4251C361.308 89.2631 361.509 89.1822 361.743 89.1822C361.977 89.1822 362.178 89.2631 362.344 89.4251C362.51 89.5827 362.593 89.7745 362.593 90.0004C362.593 90.2262 362.51 90.4201 362.344 90.582C362.178 90.7397 361.977 90.8185 361.743 90.8185ZM366.452 96.1879V102.324H365.315V92.506H366.42V94.0465H366.523C366.753 93.5437 367.111 93.141 367.597 92.8384C368.087 92.5316 368.692 92.3782 369.412 92.3782C370.072 92.3782 370.652 92.5167 371.151 92.7937C371.653 93.0664 372.043 93.4691 372.32 94.0018C372.602 94.5344 372.742 95.1886 372.742 95.9641V102.324H371.604V96.0344C371.604 95.229 371.379 94.592 370.927 94.1232C370.479 93.6545 369.879 93.4201 369.124 93.4201C368.609 93.4201 368.151 93.5309 367.75 93.7525C367.349 93.9741 367.032 94.2937 366.798 94.7113C366.567 95.1246 366.452 95.6168 366.452 96.1879ZM379.484 106.211C378.815 106.211 378.229 106.123 377.726 105.949C377.224 105.778 376.8 105.544 376.454 105.245C376.109 104.947 375.841 104.613 375.649 104.242L376.582 103.628C376.723 103.875 376.91 104.118 377.145 104.357C377.383 104.596 377.692 104.794 378.072 104.951C378.455 105.109 378.926 105.188 379.484 105.188C380.354 105.188 381.055 104.971 381.587 104.536C382.124 104.101 382.393 103.426 382.393 102.51V100.298H382.29C382.158 100.596 381.969 100.895 381.721 101.193C381.474 101.487 381.15 101.732 380.75 101.928C380.354 102.124 379.861 102.222 379.273 102.222C378.489 102.222 377.792 102.028 377.183 101.64C376.578 101.252 376.101 100.699 375.751 99.9783C375.406 99.2539 375.233 98.391 375.233 97.3896C375.233 96.3967 375.402 95.5231 375.738 94.7688C376.079 94.0146 376.555 93.4265 377.164 93.0046C377.773 92.5827 378.483 92.3718 379.292 92.3718C379.893 92.3718 380.392 92.4783 380.788 92.6914C381.184 92.9002 381.502 93.1602 381.741 93.4712C381.983 93.7823 382.173 94.0849 382.309 94.3789H382.425V92.506H383.537V102.58C383.537 103.411 383.36 104.095 383.006 104.632C382.653 105.169 382.171 105.565 381.562 105.821C380.952 106.081 380.26 106.211 379.484 106.211ZM379.407 101.18C380.038 101.18 380.577 101.029 381.025 100.726C381.472 100.419 381.815 99.9805 382.054 99.4094C382.292 98.8384 382.412 98.1587 382.412 97.3704C382.412 96.6033 382.295 95.9237 382.06 95.3313C381.826 94.7347 381.485 94.266 381.037 93.9251C380.594 93.5799 380.051 93.4073 379.407 93.4073C378.751 93.4073 378.197 93.5842 377.746 93.9379C377.294 94.2915 376.953 94.7688 376.723 95.3697C376.493 95.9663 376.378 96.6332 376.378 97.3704C376.378 98.1204 376.495 98.783 376.729 99.3583C376.964 99.9293 377.307 100.377 377.758 100.701C378.21 101.02 378.76 101.18 379.407 101.18ZM398.208 94.6602L397.166 94.9542C397.064 94.6602 396.919 94.3938 396.732 94.1552C396.544 93.9165 396.299 93.7269 395.996 93.5863C395.698 93.4457 395.327 93.3754 394.884 93.3754C394.219 93.3754 393.674 93.533 393.248 93.8484C392.822 94.1637 392.609 94.5707 392.609 95.0692C392.609 95.4911 392.754 95.8342 393.043 96.0984C393.337 96.3583 393.789 96.565 394.398 96.7184L395.881 97.0827C396.704 97.283 397.32 97.6005 397.729 98.0352C398.142 98.4698 398.349 99.0153 398.349 99.6715C398.349 100.225 398.195 100.718 397.888 101.148C397.582 101.578 397.153 101.917 396.604 102.164C396.058 102.407 395.425 102.529 394.705 102.529C393.746 102.529 392.956 102.314 392.334 101.883C391.712 101.449 391.313 100.822 391.138 100.004L392.232 99.7354C392.372 100.319 392.647 100.76 393.056 101.059C393.469 101.357 394.013 101.506 394.686 101.506C395.44 101.506 396.043 101.338 396.495 101.001C396.947 100.66 397.173 100.234 397.173 99.7227C397.173 99.3263 397.04 98.994 396.776 98.7255C396.512 98.4528 396.112 98.2525 395.575 98.1246L393.97 97.7411C393.118 97.5366 392.487 97.2127 392.078 96.7695C391.669 96.3263 391.464 95.7766 391.464 95.1204C391.464 94.5792 391.612 94.104 391.906 93.695C392.2 93.2816 392.604 92.9577 393.12 92.7234C393.636 92.489 394.224 92.3718 394.884 92.3718C395.783 92.3718 396.501 92.5763 397.038 92.9854C397.58 93.3903 397.969 93.9485 398.208 94.6602ZM404.656 102.529C403.808 102.529 403.058 102.314 402.406 101.883C401.758 101.453 401.251 100.858 400.885 100.1C400.518 99.337 400.335 98.457 400.335 97.4599C400.335 96.4542 400.518 95.57 400.885 94.8072C401.251 94.0401 401.758 93.4435 402.406 93.0174C403.058 92.587 403.808 92.3718 404.656 92.3718C405.504 92.3718 406.252 92.587 406.9 93.0174C407.547 93.4478 408.055 94.0444 408.421 94.8072C408.792 95.57 408.977 96.4542 408.977 97.4599C408.977 98.457 408.794 99.337 408.427 100.1C408.061 100.858 407.552 101.453 406.9 101.883C406.252 102.314 405.504 102.529 404.656 102.529ZM404.656 101.487C405.338 101.487 405.915 101.304 406.388 100.937C406.861 100.571 407.219 100.083 407.462 99.4734C407.709 98.864 407.833 98.1928 407.833 97.4599C407.833 96.7269 407.709 96.0536 407.462 95.44C407.219 94.8263 406.861 94.3342 406.388 93.9634C405.915 93.5927 405.338 93.4073 404.656 93.4073C403.979 93.4073 403.401 93.5927 402.924 93.9634C402.451 94.3342 402.091 94.8263 401.844 95.44C401.601 96.0536 401.479 96.7269 401.479 97.4599C401.479 98.1928 401.601 98.864 401.844 99.4734C402.091 100.083 402.451 100.571 402.924 100.937C403.397 101.304 403.974 101.487 404.656 101.487ZM415.291 102.529C414.443 102.529 413.693 102.314 413.041 101.883C412.393 101.453 411.886 100.858 411.52 100.1C411.153 99.337 410.97 98.457 410.97 97.4599C410.97 96.4542 411.153 95.57 411.52 94.8072C411.886 94.0401 412.393 93.4435 413.041 93.0174C413.693 92.587 414.443 92.3718 415.291 92.3718C416.139 92.3718 416.887 92.587 417.534 93.0174C418.182 93.4478 418.689 94.0444 419.056 94.8072C419.426 95.57 419.612 96.4542 419.612 97.4599C419.612 98.457 419.429 99.337 419.062 100.1C418.696 100.858 418.186 101.453 417.534 101.883C416.887 102.314 416.139 102.529 415.291 102.529ZM415.291 101.487C415.973 101.487 416.55 101.304 417.023 100.937C417.496 100.571 417.854 100.083 418.097 99.4734C418.344 98.864 418.468 98.1928 418.468 97.4599C418.468 96.7269 418.344 96.0536 418.097 95.44C417.854 94.8263 417.496 94.3342 417.023 93.9634C416.55 93.5927 415.973 93.4073 415.291 93.4073C414.613 93.4073 414.036 93.5927 413.559 93.9634C413.086 94.3342 412.725 94.8263 412.478 95.44C412.235 96.0536 412.114 96.7269 412.114 97.4599C412.114 98.1928 412.235 98.864 412.478 99.4734C412.725 100.083 413.086 100.571 413.559 100.937C414.032 101.304 414.609 101.487 415.291 101.487ZM423.247 96.1879V102.324H422.11V92.506H423.215V94.0465H423.318C423.548 93.5437 423.906 93.141 424.392 92.8384C424.882 92.5316 425.487 92.3782 426.207 92.3782C426.867 92.3782 427.447 92.5167 427.945 92.7937C428.448 93.0664 428.838 93.4691 429.115 94.0018C429.396 94.5344 429.537 95.1886 429.537 95.9641V102.324H428.399V96.0344C428.399 95.229 428.173 94.592 427.722 94.1232C427.274 93.6545 426.673 93.4201 425.919 93.4201C425.404 93.4201 424.945 93.5309 424.545 93.7525C424.144 93.9741 423.827 94.2937 423.593 94.7113C423.362 95.1246 423.247 95.6168 423.247 96.1879Z" fill="black"/>
</svg>
