<svg width="1034" height="1654" viewBox="0 0 1034 1654" fill="none" xmlns="http://www.w3.org/2000/svg">
<g clip-path="url(#clip0_239_11)">
<path fill-rule="evenodd" clip-rule="evenodd" d="M-0.177734 -0.567383H1033.81V1653.86H-0.177734V-0.567383Z" fill="#1B202E"/>
<path fill-rule="evenodd" clip-rule="evenodd" d="M-0.177734 -0.567383H50.3162C50.8075 2.15385 51.1099 4.98846 51.1099 7.86087C51.1099 33.1456 30.5873 53.6682 5.30252 53.6682C3.45057 53.6682 1.59862 53.5548 -0.177734 53.3281V-0.567383ZM245.375 -0.567383H335.592C336.083 2.15385 336.385 4.98846 336.385 7.86087C336.385 33.1456 315.863 53.6682 290.578 53.6682H290.502H290.427C265.142 53.6682 244.619 33.1456 244.619 7.86087C244.619 4.98846 244.884 2.15385 245.413 -0.567383H245.375ZM530.651 -0.567383H620.678C621.169 2.15385 621.472 4.98846 621.472 7.86087C621.472 33.1456 600.949 53.6682 575.664 53.6682C550.38 53.6682 529.857 33.1456 529.857 7.86087C529.857 4.98846 530.122 2.15385 530.651 -0.567383ZM815.7 -0.567383H905.954C906.445 2.15385 906.747 4.98846 906.747 7.86087C906.747 33.1456 886.225 53.6682 860.94 53.6682H860.827H860.713C835.428 53.6682 814.906 33.1456 814.906 7.86087C814.906 4.98846 815.17 2.15385 815.7 -0.567383ZM1033.81 115.916V184.703C1025.73 191.922 1015.07 196.306 1003.35 196.306C978.066 196.306 957.544 175.783 957.544 150.499V150.31V150.121C957.544 124.836 978.066 104.313 1003.35 104.313C1015.03 104.313 1025.73 108.698 1033.81 115.916ZM1033.81 401.192V469.638C1025.73 476.857 1015.03 481.241 1003.35 481.241C978.444 481.241 958.186 461.361 957.581 436.606C957.581 436.228 957.581 435.85 957.581 435.472V435.434C957.581 435.056 957.581 434.678 957.581 434.3C958.186 409.544 978.444 389.664 1003.35 389.664C1015.03 389.664 1025.73 394.049 1033.81 401.267V401.192ZM1033.81 686.089V754.876C1025.73 762.095 1015.07 766.479 1003.35 766.479C978.066 766.479 957.544 745.956 957.544 720.672V720.483V720.294C957.544 695.009 978.066 674.486 1003.35 674.486C1015.03 674.486 1025.73 678.871 1033.81 686.089ZM1033.81 971.365V1040.38C1025.73 1047.6 1015.07 1051.98 1003.35 1051.98C978.066 1051.98 957.544 1031.46 957.544 1006.17V1005.87V1005.57C957.544 980.284 978.066 959.762 1003.35 959.762C1015.03 959.762 1025.73 964.146 1033.81 971.365ZM1033.81 1256.87V1325.65C1025.73 1332.87 1015.07 1337.26 1003.35 1337.26C978.066 1337.26 957.544 1316.73 957.544 1291.45V1291.26V1291.07C957.544 1265.79 978.066 1245.26 1003.35 1245.26C1015.03 1245.26 1025.73 1249.65 1033.81 1256.87ZM1033.81 1542.14V1610.59C1025.73 1617.81 1015.03 1622.19 1003.35 1622.19C978.444 1622.19 958.186 1602.31 957.581 1577.56C957.581 1577.18 957.581 1576.8 957.581 1576.42V1576.38C957.581 1576.01 957.581 1575.63 957.581 1575.25C958.186 1550.5 978.444 1530.62 1003.35 1530.62C1015.03 1530.62 1025.73 1535 1033.81 1542.22V1542.14ZM-0.177734 1479.18V1388.24C1.63642 1388.02 3.45057 1387.9 5.30252 1387.9C30.5873 1387.9 51.1099 1408.42 51.1099 1433.71C51.1099 1458.99 30.5873 1479.52 5.30252 1479.52C3.45057 1479.52 1.59862 1479.4 -0.177734 1479.18ZM-0.177734 1194.32V1103.38C1.63642 1103.16 3.45057 1103.04 5.30252 1103.04C30.5873 1103.04 51.1099 1123.56 51.1099 1148.85C51.1099 1174.13 30.5873 1194.66 5.30252 1194.66C3.45057 1194.66 1.59862 1194.54 -0.177734 1194.32ZM-0.177734 908.436V817.502C1.63642 817.275 3.45057 817.162 5.30252 817.162C30.5873 817.162 51.1099 837.684 51.1099 862.969C51.1099 888.254 30.5873 908.777 5.30252 908.777C3.45057 908.777 1.59862 908.663 -0.177734 908.436ZM-0.177734 623.577V532.642C1.63642 532.415 3.45057 532.302 5.30252 532.302C30.5873 532.302 51.1099 552.825 51.1099 578.109C51.1099 603.394 30.5873 623.917 5.30252 623.917C3.45057 623.917 1.59862 623.803 -0.177734 623.577ZM-0.177734 338.263V247.329C1.63642 247.102 3.45057 246.989 5.30252 246.989C30.5873 246.989 51.1099 267.511 51.1099 292.796C51.1099 318.081 30.5873 338.604 5.30252 338.604C3.45057 338.604 1.59862 338.49 -0.177734 338.263ZM860.751 532.302H860.864H860.978C886.263 532.302 906.785 552.825 906.785 578.109C906.785 603.394 886.263 623.917 860.978 623.917H860.864H860.751C835.466 623.917 814.944 603.394 814.944 578.109C814.944 552.825 835.466 532.302 860.751 532.302ZM764.11 436.606C763.505 461.361 743.247 481.241 718.34 481.241C693.433 481.241 673.175 461.361 672.57 436.606C672.57 436.228 672.57 435.85 672.57 435.472V435.434C672.57 435.056 672.57 434.678 672.57 434.3C673.175 409.544 693.433 389.664 718.34 389.664C743.247 389.664 763.505 409.544 764.11 434.3C764.11 434.678 764.11 435.056 764.11 435.434V435.472C764.11 435.85 764.11 436.228 764.11 436.606ZM672.533 720.709V720.52V720.331C672.533 695.047 693.055 674.524 718.34 674.524C743.625 674.524 764.147 695.047 764.147 720.331V720.52V720.709C764.147 745.994 743.625 766.517 718.34 766.517C693.055 766.517 672.533 745.994 672.533 720.709ZM478.872 436.606C478.267 461.361 458.009 481.241 433.102 481.241C408.196 481.241 387.938 461.361 387.333 436.606C387.333 436.228 387.333 435.85 387.333 435.472V435.434C387.333 435.056 387.333 434.678 387.333 434.3C387.938 409.544 408.196 389.664 433.102 389.664C458.009 389.664 478.267 409.544 478.872 434.3C478.872 434.678 478.872 435.056 478.872 435.434V435.472C478.872 435.85 478.872 436.228 478.872 436.606ZM387.295 720.709V720.52V720.331C387.295 695.047 407.818 674.524 433.102 674.524C458.387 674.524 478.91 695.047 478.91 720.331V720.52V720.709C478.91 745.994 458.387 766.517 433.102 766.517C407.818 766.517 387.295 745.994 387.295 720.709ZM575.74 532.264C601.025 532.264 621.547 552.787 621.547 578.072C621.547 603.356 601.025 623.879 575.74 623.879C550.455 623.879 529.933 603.356 529.933 578.072C529.933 552.787 550.455 532.264 575.74 532.264ZM290.465 532.264H290.54H290.616C315.901 532.264 336.423 552.787 336.423 578.072C336.423 603.356 315.901 623.879 290.616 623.879H290.54H290.465C265.18 623.879 244.657 603.356 244.657 578.072C244.657 552.787 265.18 532.264 290.465 532.264ZM193.785 436.568C193.181 461.323 172.923 481.203 148.016 481.203C123.109 481.203 102.851 461.323 102.246 436.568C102.246 436.19 102.246 435.812 102.246 435.434V435.396C102.246 435.018 102.246 434.64 102.246 434.262C102.851 409.507 123.109 389.627 148.016 389.627C172.923 389.627 193.181 409.507 193.785 434.262C193.785 434.64 193.785 435.018 193.785 435.396V435.434C193.785 435.812 193.785 436.19 193.785 436.568ZM102.208 720.672V720.483V720.294C102.208 695.009 122.731 674.486 148.016 674.486C173.301 674.486 193.823 695.009 193.823 720.294V720.483V720.672C193.823 745.956 173.301 766.479 148.016 766.479C122.731 766.479 102.208 745.956 102.208 720.672ZM860.789 817.124H860.902H861.016C886.3 817.124 906.823 837.647 906.823 862.931C906.823 888.216 886.3 908.739 861.016 908.739H860.902H860.789C835.504 908.739 814.981 888.216 814.981 862.931C814.981 837.647 835.504 817.124 860.789 817.124ZM672.57 1005.57C672.57 980.284 693.093 959.762 718.378 959.762C743.663 959.762 764.185 980.284 764.185 1005.57V1005.87V1006.17C764.185 1031.46 743.663 1051.98 718.378 1051.98C693.093 1051.98 672.57 1031.46 672.57 1006.17V1005.87V1005.57ZM387.295 1005.57C387.295 980.284 407.818 959.762 433.102 959.762C458.387 959.762 478.91 980.284 478.91 1005.57V1005.87V1006.17C478.91 1031.46 458.387 1051.98 433.102 1051.98C407.818 1051.98 387.295 1031.46 387.295 1006.17V1005.87V1005.57ZM575.74 817.124C601.025 817.124 621.547 837.647 621.547 862.931C621.547 888.216 601.025 908.739 575.74 908.739C550.455 908.739 529.933 888.216 529.933 862.931C529.933 837.647 550.455 817.124 575.74 817.124ZM290.465 817.124H290.54H290.616C315.901 817.124 336.423 837.647 336.423 862.931C336.423 888.216 315.901 908.739 290.616 908.739H290.54H290.465C265.18 908.739 244.657 888.216 244.657 862.931C244.657 837.647 265.18 817.124 290.465 817.124ZM102.208 1005.57C102.208 980.284 122.731 959.762 148.016 959.762C173.301 959.762 193.823 980.284 193.823 1005.57V1005.87V1006.17C193.823 1031.46 173.301 1051.98 148.016 1051.98C122.731 1051.98 102.208 1031.46 102.208 1006.17V1005.87V1005.57ZM672.57 150.536V150.347V150.158C672.57 124.874 693.093 104.351 718.378 104.351C743.663 104.351 764.185 124.874 764.185 150.158V150.347V150.536C764.185 175.821 743.663 196.344 718.378 196.344C693.093 196.344 672.57 175.821 672.57 150.536ZM387.295 150.536V150.347V150.158C387.295 124.874 407.818 104.351 433.102 104.351C458.387 104.351 478.91 124.874 478.91 150.158V150.347V150.536C478.91 175.821 458.387 196.344 433.102 196.344C407.818 196.344 387.295 175.821 387.295 150.536ZM102.208 150.536V150.347V150.158C102.208 124.874 122.731 104.351 148.016 104.351C173.301 104.351 193.823 124.874 193.823 150.158V150.347V150.536C193.823 175.821 173.301 196.344 148.016 196.344C122.731 196.344 102.208 175.821 102.208 150.536ZM860.789 246.989H860.902H861.016C886.3 246.989 906.823 267.511 906.823 292.796C906.823 318.081 886.3 338.604 861.016 338.604H860.902H860.789C835.504 338.604 814.981 318.081 814.981 292.796C814.981 267.511 835.504 246.989 860.789 246.989ZM575.74 246.989C601.025 246.989 621.547 267.511 621.547 292.796C621.547 318.081 601.025 338.604 575.74 338.604C550.455 338.604 529.933 318.081 529.933 292.796C529.933 267.511 550.455 246.989 575.74 246.989ZM290.465 246.989H290.54H290.616C315.901 246.989 336.423 267.511 336.423 292.796C336.423 318.081 315.901 338.604 290.616 338.604H290.54H290.465C265.18 338.604 244.657 318.081 244.657 292.796C244.657 267.511 265.18 246.989 290.465 246.989ZM764.147 1577.52C763.543 1602.27 743.285 1622.15 718.378 1622.15C693.471 1622.15 673.213 1602.27 672.608 1577.52C672.608 1577.14 672.608 1576.76 672.608 1576.38V1576.35C672.608 1575.97 672.608 1575.59 672.608 1575.21C673.213 1550.46 693.471 1530.58 718.378 1530.58C743.285 1530.58 763.543 1550.46 764.147 1575.21C764.147 1575.59 764.147 1575.97 764.147 1576.35V1576.38C764.147 1576.76 764.147 1577.14 764.147 1577.52ZM478.872 1577.52C478.267 1602.27 458.009 1622.15 433.102 1622.15C408.196 1622.15 387.938 1602.27 387.333 1577.52C387.333 1577.14 387.333 1576.76 387.333 1576.38V1576.35C387.333 1575.97 387.333 1575.59 387.333 1575.21C387.938 1550.46 408.196 1530.58 433.102 1530.58C458.009 1530.58 478.267 1550.46 478.872 1575.21C478.872 1575.59 478.872 1575.97 478.872 1576.35V1576.38C478.872 1576.76 478.872 1577.14 478.872 1577.52ZM193.785 1577.52C193.181 1602.27 172.923 1622.15 148.016 1622.15C123.109 1622.15 102.851 1602.27 102.246 1577.52C102.246 1577.14 102.246 1576.76 102.246 1576.38V1576.35C102.246 1575.97 102.246 1575.59 102.246 1575.21C102.851 1550.46 123.109 1530.58 148.016 1530.58C172.923 1530.58 193.181 1550.46 193.785 1575.21C193.785 1575.59 193.785 1575.97 193.785 1576.35V1576.38C193.785 1576.76 193.785 1577.14 193.785 1577.52ZM860.789 1103.04H860.902H861.016C886.3 1103.04 906.823 1123.56 906.823 1148.85C906.823 1174.13 886.3 1194.66 861.016 1194.66H860.902H860.789C835.504 1194.66 814.981 1174.13 814.981 1148.85C814.981 1123.56 835.504 1103.04 860.789 1103.04ZM672.57 1291.49V1291.3V1291.11C672.57 1265.82 693.093 1245.3 718.378 1245.3C743.663 1245.3 764.185 1265.82 764.185 1291.11V1291.3V1291.49C764.185 1316.77 743.663 1337.29 718.378 1337.29C693.093 1337.29 672.57 1316.77 672.57 1291.49ZM387.295 1291.49V1291.3V1291.11C387.295 1265.82 407.818 1245.3 433.102 1245.3C458.387 1245.3 478.91 1265.82 478.91 1291.11V1291.3V1291.49C478.91 1316.77 458.387 1337.29 433.102 1337.29C407.818 1337.29 387.295 1316.77 387.295 1291.49ZM575.74 1103.04C601.025 1103.04 621.547 1123.56 621.547 1148.85C621.547 1174.13 601.025 1194.66 575.74 1194.66C550.455 1194.66 529.933 1174.13 529.933 1148.85C529.933 1123.56 550.455 1103.04 575.74 1103.04ZM290.465 1103.04H290.54H290.616C315.901 1103.04 336.423 1123.56 336.423 1148.85C336.423 1174.13 315.901 1194.66 290.616 1194.66H290.54H290.465C265.18 1194.66 244.657 1174.13 244.657 1148.85C244.657 1123.56 265.18 1103.04 290.465 1103.04ZM102.208 1291.49V1291.3V1291.11C102.208 1265.82 122.731 1245.3 148.016 1245.3C173.301 1245.3 193.823 1265.82 193.823 1291.11V1291.3V1291.49C193.823 1316.77 173.301 1337.29 148.016 1337.29C122.731 1337.29 102.208 1316.77 102.208 1291.49ZM860.789 1387.94H860.902H861.016C886.3 1387.94 906.823 1408.46 906.823 1433.75C906.823 1459.03 886.3 1479.55 861.016 1479.55H860.902H860.789C835.504 1479.55 814.981 1459.03 814.981 1433.75C814.981 1408.46 835.504 1387.94 860.789 1387.94ZM575.74 1387.94C601.025 1387.94 621.547 1408.46 621.547 1433.75C621.547 1459.03 601.025 1479.55 575.74 1479.55C550.455 1479.55 529.933 1459.03 529.933 1433.75C529.933 1408.46 550.455 1387.94 575.74 1387.94ZM290.465 1387.94H290.54H290.616C315.901 1387.94 336.423 1408.46 336.423 1433.75C336.423 1459.03 315.901 1479.55 290.616 1479.55H290.54H290.465C265.18 1479.55 244.657 1459.03 244.657 1433.75C244.657 1408.46 265.18 1387.94 290.465 1387.94Z" fill="#1B2333"/>
</g>
<defs>
<clipPath id="clip0_239_11">
<rect width="1033.64" height="1653.3" fill="white"/>
</clipPath>
</defs>
</svg>
