<svg width="1034" height="1654" viewBox="0 0 1034 1654" fill="none" xmlns="http://www.w3.org/2000/svg">
<g clip-path="url(#clip0_239_7)">
<path fill-rule="evenodd" clip-rule="evenodd" d="M-0.177246 -0.567383H1033.81V1653.86H-0.177246V-0.567383Z" fill="black"/>
<path fill-rule="evenodd" clip-rule="evenodd" d="M-0.177246 -0.567383H50.3167C50.808 2.15385 51.1104 4.98846 51.1104 7.86087C51.1104 33.1456 30.5878 53.6682 5.30301 53.6682C3.45106 53.6682 1.59911 53.5548 -0.177246 53.3281V-0.567383ZM245.376 -0.567383H335.592C336.083 2.15385 336.386 4.98846 336.386 7.86087C336.386 33.1456 315.863 53.6682 290.578 53.6682H290.503H290.427C265.143 53.6682 244.62 33.1456 244.62 7.86087C244.62 4.98846 244.885 2.15385 245.414 -0.567383H245.376ZM530.651 -0.567383H620.679C621.17 2.15385 621.472 4.98846 621.472 7.86087C621.472 33.1456 600.95 53.6682 575.665 53.6682C550.38 53.6682 529.858 33.1456 529.858 7.86087C529.858 4.98846 530.122 2.15385 530.651 -0.567383ZM815.7 -0.567383H905.954C906.445 2.15385 906.748 4.98846 906.748 7.86087C906.748 33.1456 886.225 53.6682 860.94 53.6682H860.827H860.714C835.429 53.6682 814.906 33.1456 814.906 7.86087C814.906 4.98846 815.171 2.15385 815.7 -0.567383ZM1033.81 115.916V184.703C1025.73 191.922 1015.07 196.306 1003.35 196.306C978.067 196.306 957.544 175.783 957.544 150.499V150.31V150.121C957.544 124.836 978.067 104.313 1003.35 104.313C1015.03 104.313 1025.73 108.698 1033.81 115.916ZM1033.81 401.192V469.638C1025.73 476.857 1015.03 481.241 1003.35 481.241C978.445 481.241 958.187 461.361 957.582 436.606C957.582 436.228 957.582 435.85 957.582 435.472V435.434C957.582 435.056 957.582 434.678 957.582 434.3C958.187 409.544 978.445 389.664 1003.35 389.664C1015.03 389.664 1025.73 394.049 1033.81 401.267V401.192ZM1033.81 686.089V754.876C1025.73 762.095 1015.07 766.479 1003.35 766.479C978.067 766.479 957.544 745.956 957.544 720.672V720.483V720.294C957.544 695.009 978.067 674.486 1003.35 674.486C1015.03 674.486 1025.73 678.871 1033.81 686.089ZM1033.81 971.365V1040.38C1025.73 1047.6 1015.07 1051.98 1003.35 1051.98C978.067 1051.98 957.544 1031.46 957.544 1006.17V1005.87V1005.57C957.544 980.284 978.067 959.762 1003.35 959.762C1015.03 959.762 1025.73 964.146 1033.81 971.365ZM1033.81 1256.87V1325.65C1025.73 1332.87 1015.07 1337.26 1003.35 1337.26C978.067 1337.26 957.544 1316.73 957.544 1291.45V1291.26V1291.07C957.544 1265.79 978.067 1245.26 1003.35 1245.26C1015.03 1245.26 1025.73 1249.65 1033.81 1256.87ZM1033.81 1542.14V1610.59C1025.73 1617.81 1015.03 1622.19 1003.35 1622.19C978.445 1622.19 958.187 1602.31 957.582 1577.56C957.582 1577.18 957.582 1576.8 957.582 1576.42V1576.38C957.582 1576.01 957.582 1575.63 957.582 1575.25C958.187 1550.5 978.445 1530.62 1003.35 1530.62C1015.03 1530.62 1025.73 1535 1033.81 1542.22V1542.14ZM-0.177246 1479.18V1388.24C1.63691 1388.02 3.45106 1387.9 5.30301 1387.9C30.5878 1387.9 51.1104 1408.42 51.1104 1433.71C51.1104 1458.99 30.5878 1479.52 5.30301 1479.52C3.45106 1479.52 1.59911 1479.4 -0.177246 1479.18ZM-0.177246 1194.32V1103.38C1.63691 1103.16 3.45106 1103.04 5.30301 1103.04C30.5878 1103.04 51.1104 1123.56 51.1104 1148.85C51.1104 1174.13 30.5878 1194.66 5.30301 1194.66C3.45106 1194.66 1.59911 1194.54 -0.177246 1194.32ZM-0.177246 908.436V817.502C1.63691 817.275 3.45106 817.162 5.30301 817.162C30.5878 817.162 51.1104 837.684 51.1104 862.969C51.1104 888.254 30.5878 908.777 5.30301 908.777C3.45106 908.777 1.59911 908.663 -0.177246 908.436ZM-0.177246 623.577V532.642C1.63691 532.415 3.45106 532.302 5.30301 532.302C30.5878 532.302 51.1104 552.825 51.1104 578.109C51.1104 603.394 30.5878 623.917 5.30301 623.917C3.45106 623.917 1.59911 623.803 -0.177246 623.577ZM-0.177246 338.263V247.329C1.63691 247.102 3.45106 246.989 5.30301 246.989C30.5878 246.989 51.1104 267.511 51.1104 292.796C51.1104 318.081 30.5878 338.604 5.30301 338.604C3.45106 338.604 1.59911 338.49 -0.177246 338.263ZM860.751 532.302H860.865H860.978C886.263 532.302 906.786 552.825 906.786 578.109C906.786 603.394 886.263 623.917 860.978 623.917H860.865H860.751C835.467 623.917 814.944 603.394 814.944 578.109C814.944 552.825 835.467 532.302 860.751 532.302ZM764.11 436.606C763.505 461.361 743.247 481.241 718.341 481.241C693.434 481.241 673.176 461.361 672.571 436.606C672.571 436.228 672.571 435.85 672.571 435.472V435.434C672.571 435.056 672.571 434.678 672.571 434.3C673.176 409.544 693.434 389.664 718.341 389.664C743.247 389.664 763.505 409.544 764.11 434.3C764.11 434.678 764.11 435.056 764.11 435.434V435.472C764.11 435.85 764.11 436.228 764.11 436.606ZM672.533 720.709V720.52V720.331C672.533 695.047 693.056 674.524 718.341 674.524C743.625 674.524 764.148 695.047 764.148 720.331V720.52V720.709C764.148 745.994 743.625 766.517 718.341 766.517C693.056 766.517 672.533 745.994 672.533 720.709ZM478.872 436.606C478.268 461.361 458.01 481.241 433.103 481.241C408.196 481.241 387.938 461.361 387.333 436.606C387.333 436.228 387.333 435.85 387.333 435.472V435.434C387.333 435.056 387.333 434.678 387.333 434.3C387.938 409.544 408.196 389.664 433.103 389.664C458.01 389.664 478.268 409.544 478.872 434.3C478.872 434.678 478.872 435.056 478.872 435.434V435.472C478.872 435.85 478.872 436.228 478.872 436.606ZM387.295 720.709V720.52V720.331C387.295 695.047 407.818 674.524 433.103 674.524C458.388 674.524 478.91 695.047 478.91 720.331V720.52V720.709C478.91 745.994 458.388 766.517 433.103 766.517C407.818 766.517 387.295 745.994 387.295 720.709ZM575.741 532.264C601.025 532.264 621.548 552.787 621.548 578.072C621.548 603.356 601.025 623.879 575.741 623.879C550.456 623.879 529.933 603.356 529.933 578.072C529.933 552.787 550.456 532.264 575.741 532.264ZM290.465 532.264H290.541H290.616C315.901 532.264 336.424 552.787 336.424 578.072C336.424 603.356 315.901 623.879 290.616 623.879H290.541H290.465C265.18 623.879 244.658 603.356 244.658 578.072C244.658 552.787 265.18 532.264 290.465 532.264ZM193.786 436.568C193.181 461.323 172.923 481.203 148.016 481.203C123.11 481.203 102.851 461.323 102.247 436.568C102.247 436.19 102.247 435.812 102.247 435.434V435.396C102.247 435.018 102.247 434.64 102.247 434.262C102.851 409.507 123.11 389.627 148.016 389.627C172.923 389.627 193.181 409.507 193.786 434.262C193.786 434.64 193.786 435.018 193.786 435.396V435.434C193.786 435.812 193.786 436.19 193.786 436.568ZM102.209 720.672V720.483V720.294C102.209 695.009 122.732 674.486 148.016 674.486C173.301 674.486 193.824 695.009 193.824 720.294V720.483V720.672C193.824 745.956 173.301 766.479 148.016 766.479C122.732 766.479 102.209 745.956 102.209 720.672ZM860.789 817.124H860.903H861.016C886.301 817.124 906.823 837.647 906.823 862.931C906.823 888.216 886.301 908.739 861.016 908.739H860.903H860.789C835.505 908.739 814.982 888.216 814.982 862.931C814.982 837.647 835.505 817.124 860.789 817.124ZM672.571 1005.57C672.571 980.284 693.094 959.762 718.378 959.762C743.663 959.762 764.186 980.284 764.186 1005.57V1005.87V1006.17C764.186 1031.46 743.663 1051.98 718.378 1051.98C693.094 1051.98 672.571 1031.46 672.571 1006.17V1005.87V1005.57ZM387.295 1005.57C387.295 980.284 407.818 959.762 433.103 959.762C458.388 959.762 478.91 980.284 478.91 1005.57V1005.87V1006.17C478.91 1031.46 458.388 1051.98 433.103 1051.98C407.818 1051.98 387.295 1031.46 387.295 1006.17V1005.87V1005.57ZM575.741 817.124C601.025 817.124 621.548 837.647 621.548 862.931C621.548 888.216 601.025 908.739 575.741 908.739C550.456 908.739 529.933 888.216 529.933 862.931C529.933 837.647 550.456 817.124 575.741 817.124ZM290.465 817.124H290.541H290.616C315.901 817.124 336.424 837.647 336.424 862.931C336.424 888.216 315.901 908.739 290.616 908.739H290.541H290.465C265.18 908.739 244.658 888.216 244.658 862.931C244.658 837.647 265.18 817.124 290.465 817.124ZM102.209 1005.57C102.209 980.284 122.732 959.762 148.016 959.762C173.301 959.762 193.824 980.284 193.824 1005.57V1005.87V1006.17C193.824 1031.46 173.301 1051.98 148.016 1051.98C122.732 1051.98 102.209 1031.46 102.209 1006.17V1005.87V1005.57ZM672.571 150.536V150.347V150.158C672.571 124.874 693.094 104.351 718.378 104.351C743.663 104.351 764.186 124.874 764.186 150.158V150.347V150.536C764.186 175.821 743.663 196.344 718.378 196.344C693.094 196.344 672.571 175.821 672.571 150.536ZM387.295 150.536V150.347V150.158C387.295 124.874 407.818 104.351 433.103 104.351C458.388 104.351 478.91 124.874 478.91 150.158V150.347V150.536C478.91 175.821 458.388 196.344 433.103 196.344C407.818 196.344 387.295 175.821 387.295 150.536ZM102.209 150.536V150.347V150.158C102.209 124.874 122.732 104.351 148.016 104.351C173.301 104.351 193.824 124.874 193.824 150.158V150.347V150.536C193.824 175.821 173.301 196.344 148.016 196.344C122.732 196.344 102.209 175.821 102.209 150.536ZM860.789 246.989H860.903H861.016C886.301 246.989 906.823 267.511 906.823 292.796C906.823 318.081 886.301 338.604 861.016 338.604H860.903H860.789C835.505 338.604 814.982 318.081 814.982 292.796C814.982 267.511 835.505 246.989 860.789 246.989ZM575.741 246.989C601.025 246.989 621.548 267.511 621.548 292.796C621.548 318.081 601.025 338.604 575.741 338.604C550.456 338.604 529.933 318.081 529.933 292.796C529.933 267.511 550.456 246.989 575.741 246.989ZM290.465 246.989H290.541H290.616C315.901 246.989 336.424 267.511 336.424 292.796C336.424 318.081 315.901 338.604 290.616 338.604H290.541H290.465C265.18 338.604 244.658 318.081 244.658 292.796C244.658 267.511 265.18 246.989 290.465 246.989ZM764.148 1577.52C763.543 1602.27 743.285 1622.15 718.378 1622.15C693.472 1622.15 673.213 1602.27 672.609 1577.52C672.609 1577.14 672.609 1576.76 672.609 1576.38V1576.35C672.609 1575.97 672.609 1575.59 672.609 1575.21C673.213 1550.46 693.472 1530.58 718.378 1530.58C743.285 1530.58 763.543 1550.46 764.148 1575.21C764.148 1575.59 764.148 1575.97 764.148 1576.35V1576.38C764.148 1576.76 764.148 1577.14 764.148 1577.52ZM478.872 1577.52C478.268 1602.27 458.01 1622.15 433.103 1622.15C408.196 1622.15 387.938 1602.27 387.333 1577.52C387.333 1577.14 387.333 1576.76 387.333 1576.38V1576.35C387.333 1575.97 387.333 1575.59 387.333 1575.21C387.938 1550.46 408.196 1530.58 433.103 1530.58C458.01 1530.58 478.268 1550.46 478.872 1575.21C478.872 1575.59 478.872 1575.97 478.872 1576.35V1576.38C478.872 1576.76 478.872 1577.14 478.872 1577.52ZM193.786 1577.52C193.181 1602.27 172.923 1622.15 148.016 1622.15C123.11 1622.15 102.851 1602.27 102.247 1577.52C102.247 1577.14 102.247 1576.76 102.247 1576.38V1576.35C102.247 1575.97 102.247 1575.59 102.247 1575.21C102.851 1550.46 123.11 1530.58 148.016 1530.58C172.923 1530.58 193.181 1550.46 193.786 1575.21C193.786 1575.59 193.786 1575.97 193.786 1576.35V1576.38C193.786 1576.76 193.786 1577.14 193.786 1577.52ZM860.789 1103.04H860.903H861.016C886.301 1103.04 906.823 1123.56 906.823 1148.85C906.823 1174.13 886.301 1194.66 861.016 1194.66H860.903H860.789C835.505 1194.66 814.982 1174.13 814.982 1148.85C814.982 1123.56 835.505 1103.04 860.789 1103.04ZM672.571 1291.49V1291.3V1291.11C672.571 1265.82 693.094 1245.3 718.378 1245.3C743.663 1245.3 764.186 1265.82 764.186 1291.11V1291.3V1291.49C764.186 1316.77 743.663 1337.29 718.378 1337.29C693.094 1337.29 672.571 1316.77 672.571 1291.49ZM387.295 1291.49V1291.3V1291.11C387.295 1265.82 407.818 1245.3 433.103 1245.3C458.388 1245.3 478.91 1265.82 478.91 1291.11V1291.3V1291.49C478.91 1316.77 458.388 1337.29 433.103 1337.29C407.818 1337.29 387.295 1316.77 387.295 1291.49ZM575.741 1103.04C601.025 1103.04 621.548 1123.56 621.548 1148.85C621.548 1174.13 601.025 1194.66 575.741 1194.66C550.456 1194.66 529.933 1174.13 529.933 1148.85C529.933 1123.56 550.456 1103.04 575.741 1103.04ZM290.465 1103.04H290.541H290.616C315.901 1103.04 336.424 1123.56 336.424 1148.85C336.424 1174.13 315.901 1194.66 290.616 1194.66H290.541H290.465C265.18 1194.66 244.658 1174.13 244.658 1148.85C244.658 1123.56 265.18 1103.04 290.465 1103.04ZM102.209 1291.49V1291.3V1291.11C102.209 1265.82 122.732 1245.3 148.016 1245.3C173.301 1245.3 193.824 1265.82 193.824 1291.11V1291.3V1291.49C193.824 1316.77 173.301 1337.29 148.016 1337.29C122.732 1337.29 102.209 1316.77 102.209 1291.49ZM860.789 1387.94H860.903H861.016C886.301 1387.94 906.823 1408.46 906.823 1433.75C906.823 1459.03 886.301 1479.55 861.016 1479.55H860.903H860.789C835.505 1479.55 814.982 1459.03 814.982 1433.75C814.982 1408.46 835.505 1387.94 860.789 1387.94ZM575.741 1387.94C601.025 1387.94 621.548 1408.46 621.548 1433.75C621.548 1459.03 601.025 1479.55 575.741 1479.55C550.456 1479.55 529.933 1459.03 529.933 1433.75C529.933 1408.46 550.456 1387.94 575.741 1387.94ZM290.465 1387.94H290.541H290.616C315.901 1387.94 336.424 1408.46 336.424 1433.75C336.424 1459.03 315.901 1479.55 290.616 1479.55H290.541H290.465C265.18 1479.55 244.658 1459.03 244.658 1433.75C244.658 1408.46 265.18 1387.94 290.465 1387.94Z" fill="#525ECA"/>
</g>
<defs>
<clipPath id="clip0_239_7">
<rect width="1033.64" height="1653.3" fill="white"/>
</clipPath>
</defs>
</svg>
