<svg width="25" height="67" viewBox="0 0 25 67" fill="none" xmlns="http://www.w3.org/2000/svg">
<g clip-path="url(#clip0_239_19)">
<path fill-rule="evenodd" clip-rule="evenodd" d="M14.2014 18.673L16.4299 24.2254C16.9587 28.0782 17.5253 30.1178 17.7142 34.3483C17.8653 38.0121 16.6943 41.3361 16.7321 44.66C15.5234 45.9442 14.9946 48.2861 14.2014 49.9858C13.7481 50.8923 13.3704 51.6478 12.8794 52.5921C12.0484 54.2162 12.3884 54.2918 10.8775 55.085L9.81987 57.9179C8.68671 58.3334 9.25329 58.4089 8.12014 59.6554C6.53372 61.3551 2.56768 65.2456 0.490234 66.1521C1.43453 64.1502 0.905724 64.9057 2.9454 63.4326C3.96524 62.6771 4.45627 62.2239 5.32502 61.3551C6.19378 60.4864 6.64704 59.9953 7.44025 58.9755C8.46008 57.6535 8.72449 57.5024 7.89351 56.0293C11.3307 56.5581 8.72449 56.2559 9.81987 55.6138C10.3109 54.4806 9.63101 55.3116 10.8397 55.1605L10.7264 54.1029C12.2373 53.0075 12.4639 51.7233 13.3704 49.7969C14.1636 48.135 14.8057 46.5486 15.2212 44.6978C16.5432 40.354 17.9408 33.7817 16.4299 29.4002L14.9191 23.7722C14.5036 21.808 14.2392 20.6749 13.1438 19.3906L12.4639 17.2754L14.2014 18.7863V18.673ZM12.5772 16.1045L11.5196 16.4822L10.5375 14.2537L9.74433 12.214C9.89541 12.2895 10.1598 12.1007 10.2731 12.2895L12.5772 16.1045ZM6.72258 6.77486L8.19568 8.62568L10.0465 11.6097L8.42231 10.9675C6.60927 8.81454 6.72258 9.07894 5.81606 6.35938L6.72258 6.77486Z" fill="white"/>
<path fill-rule="evenodd" clip-rule="evenodd" d="M6.04311 6.39672C2.22815 5.64129 0.641738 4.20596 0.188477 0.202148C3.85234 0.617638 5.92979 2.35514 6.04311 6.39672ZM11.9355 56.7465C11.7844 57.4642 12.351 57.2753 11.6711 57.502C10.689 57.8041 11.4445 57.6908 10.689 57.3509C11.2556 56.8221 10.7268 57.0487 11.9355 56.7465C11.4067 55.4245 11.86 55.9533 12.011 55.5756C13.6352 54.9713 13.2197 55.3867 13.8996 56.7088L11.9355 56.7465ZM9.82029 55.5378C8.57382 55.5378 9.78251 56.1044 8.38496 55.4245C7.51621 54.9713 7.9317 55.0846 7.47843 54.5558C8.83822 53.9514 8.98931 54.027 9.82029 55.5756V55.5378ZM10.7646 54.027C8.64936 54.178 9.02708 54.3291 7.70506 52.856L9.48034 52.2517L10.7268 54.027H10.7646ZM9.21594 51.8362L8.49827 51.7229C9.48034 49.9476 7.85615 50.5897 10.3113 50.2498L11.6711 50.8164C11.7466 50.6653 11.8977 51.043 12.0866 51.3452L9.21594 51.874V51.8362ZM15.9771 54.518C15.4483 55.009 17.7524 55.3867 14.2396 55.3112C11.6333 55.2734 13.6352 55.349 12.7287 54.6313C14.013 53.3093 13.7863 53.3848 15.9771 54.518ZM18.0545 52.856C16.1282 53.6492 15.826 53.8003 14.164 52.856C14.3151 52.1006 13.3708 51.0808 15.7882 51.2696C16.9592 51.3452 17.6013 52.2895 18.0545 52.856ZM10.4246 49.6077C8.68713 48.4367 9.63143 49.4566 8.7249 47.7568L10.7646 47.1525C13.1064 47.2658 12.8043 47.1147 13.2197 49.5321L10.4246 49.5699V49.6077ZM15.1839 42.2422C13.7486 43.7908 11.6333 44.0174 9.9336 42.1666C11.3689 40.1647 13.8619 40.1269 15.1839 42.2422ZM14.2774 44.7351V46.5104L10.7268 46.5481C8.68713 45.4905 10.2358 46.8503 9.59365 44.8106C11.4822 43.753 12.1621 43.5264 14.2774 44.7729V44.7351ZM19.4899 34.6878C18.8855 33.819 18.7722 33.4791 18.7722 31.9305C20.3586 30.8728 21.1518 30.6084 23.6825 30.4951C23.0782 32.4593 21.7184 34.4234 19.4899 34.65V34.6878ZM20.963 50.0609C17.8279 51.1185 14.9572 51.9117 15.7882 47.6058C18.2434 47.3036 20.0187 48.2101 20.963 50.0609ZM6.53414 8.4364C7.36512 10.5516 6.68523 9.07852 7.62952 9.72064C7.59175 12.4402 7.59175 10.6272 6.94963 11.4581C4.3056 11.4959 2.15261 10.6272 1.88821 8.39863H6.49637L6.53414 8.4364ZM18.5078 38.5028C18.6211 36.312 17.6768 35.7076 24.1358 34.7633C23.3048 37.6718 21.3785 38.8049 18.5078 38.5028ZM15.5238 39.5981C12.842 40.3158 11.7844 39.4093 10.5757 37.6718C11.6333 36.8786 12.6909 36.3875 14.2018 36.6142C17.6013 37.1052 15.5238 39.5604 15.5238 39.5981ZM18.5078 30.0041C17.5257 26.5291 19.1877 25.3582 22.5494 24.4894C21.8317 27.7378 21.6051 29.362 18.5078 30.0041ZM22.0961 44.2063C22.5494 46.0949 22.3228 46.0193 20.8874 46.6615C19.2255 47.3791 18.6589 47.0392 17.1858 46.5481L16.9592 44.4329C20.0187 42.6954 18.7344 43.9419 22.0961 44.2063ZM16.4303 24.225C16.0904 20.8256 17.1858 19.919 20.0187 19.1258C19.8298 22.1853 19.8298 23.1296 18.1679 25.0182C17.2236 24.6027 17.0725 24.6027 16.4303 24.225ZM23.9469 40.5047C22.0961 42.4688 21.2274 42.9976 17.9412 42.5066L18.1301 39.9003C20.2831 39.2582 22.2094 39.0693 23.9469 40.4669V40.5047ZM9.55588 10.0606L7.70506 7.18993L8.49827 2.39291C9.97137 3.11058 9.97137 4.47036 10.3869 6.32118C10.5002 6.77444 10.7646 8.20977 10.7646 8.62526C10.6135 11.1182 10.4246 9.94727 9.59365 10.0606H9.55588ZM14.2396 18.6726C14.504 15.7641 14.9195 14.7065 16.317 13.0446C16.9214 13.7622 16.657 12.9312 17.0725 14.1777C17.6768 16.1041 17.3746 17.9549 17.0347 19.7302C15.9393 19.7302 16.4303 20.1079 14.5795 18.8992C14.504 18.8614 14.3907 18.7103 14.2774 18.6348L14.2396 18.6726ZM16.4303 34.9522C15.6749 35.2921 16.0149 35.481 14.8439 35.5188L11.4822 34.3479C9.48034 32.9125 11.2178 34.3479 10.1602 32.9125C12.3888 32.2326 13.0309 31.3639 15.826 32.2326L16.4681 34.9522H16.4303ZM11.7466 13.4978L11.4067 10.1361C11.4822 9.3807 11.3689 9.04075 11.6711 8.20977C12.2755 6.62335 12.1999 7.30325 12.5776 6.92553C14.2774 9.07852 15.7882 17.0484 11.7466 13.4978ZM14.9572 23.6584L14.7306 25.6603C12.351 26.5291 10.2358 26.6802 8.30941 25.1693C9.78251 23.0919 12.4643 22.6764 14.9572 23.6584ZM13.182 19.2769L12.7665 21.5054C10.2358 21.8832 7.36512 21.3921 6.15642 18.8236C9.32925 18.7103 10.6135 17.9171 13.2197 19.2769H13.182ZM15.9015 29.2864L15.7127 30.6462C12.5399 30.9862 12.3888 30.1552 9.89583 30.0041C9.9336 28.4932 8.87599 28.6821 11.6333 27.8133C13.2575 27.2845 13.8619 27.4356 15.5238 27.5489L15.8638 29.2864H15.9015ZM10.198 14.1399L10.8779 16.4818C9.25371 17.1239 8.68713 17.0484 6.9874 16.444C6.94963 16.4063 5.43876 15.8019 5.43876 15.7641C3.17245 14.3288 4.75886 15.8019 3.7768 13.8C6.4586 13.3467 7.78061 13.1201 10.198 14.1399Z" fill="white"/>
</g>
<defs>
<clipPath id="clip0_239_19">
<rect width="24.325" height="66.3156" fill="white"/>
</clipPath>
</defs>
</svg>
