<svg width="25" height="67" viewBox="0 0 25 67" fill="none" xmlns="http://www.w3.org/2000/svg">
<g clip-path="url(#clip0_239_15)">
<path fill-rule="evenodd" clip-rule="evenodd" d="M10.0848 18.673L7.8563 24.2254C7.3275 28.0782 6.76092 30.1178 6.57206 34.3483C6.42097 38.0121 7.5919 41.3361 7.55413 44.66C8.76282 45.9442 9.29163 48.2861 10.0848 49.9858C10.5381 50.8923 10.9158 51.6478 11.4068 52.5921C12.2378 54.2162 11.8979 54.2918 13.4088 55.085L14.4664 57.9179C15.5995 58.3334 15.0329 58.4089 16.1661 59.6554C17.7525 61.3551 21.7186 65.2456 23.796 66.1521C22.8517 64.1502 23.3805 64.9057 21.3408 63.4326C20.321 62.6771 19.83 62.2239 18.9612 61.3551C18.0925 60.4864 17.6392 59.9953 16.846 58.9755C15.8262 57.6535 15.5617 57.5024 16.3927 56.0293C12.9555 56.5581 15.5617 56.2559 14.4664 55.6138C13.9753 54.4806 14.6552 55.3116 13.4465 55.1605L13.5598 54.1029C12.049 53.0075 11.8223 51.7233 10.9158 49.7969C10.1226 48.135 9.48049 46.5486 9.065 44.6978C7.74299 40.354 6.34543 33.7817 7.8563 29.4002L9.36717 23.7722C9.78266 21.808 10.0471 20.6749 11.1424 19.3906L11.8223 17.2754L10.0848 18.7863V18.673ZM11.709 16.1045L12.7666 16.4822L13.7487 14.2537L14.5419 12.214C14.3908 12.2895 14.1264 12.1007 14.0131 12.2895L11.709 16.1045ZM17.5637 6.77486L16.0906 8.62568L14.2397 11.6097L15.8639 10.9675C17.677 8.81454 17.5637 9.07894 18.4702 6.35938L17.5637 6.77486Z" fill="white"/>
<path fill-rule="evenodd" clip-rule="evenodd" d="M18.2812 6.39672C22.0961 5.64129 23.6825 4.20596 24.1358 0.202148C20.4719 0.617638 18.3945 2.35514 18.2812 6.39672ZM12.3888 56.7465C12.5399 57.4642 11.9733 57.2753 12.6532 57.502C13.6352 57.8041 12.8798 57.6908 13.6352 57.3509C13.0687 56.8221 13.5975 57.0487 12.3888 56.7465C12.9176 55.4245 12.4643 55.9533 12.3132 55.5756C10.689 54.9713 11.1045 55.3867 10.4246 56.7088L12.3888 56.7465ZM14.504 55.5378C15.7505 55.5378 14.5418 56.1044 15.9393 55.4245C16.8081 54.9713 16.3926 55.0846 16.8458 54.5558C15.4861 53.9514 15.335 54.027 14.504 55.5756V55.5378ZM13.5597 54.027C15.6749 54.178 15.2972 54.3291 16.6192 52.856L14.8439 52.2517L13.5975 54.027H13.5597ZM15.1083 51.8362L15.826 51.7229C14.8439 49.9476 16.4681 50.5897 14.013 50.2498L12.6532 50.8164C12.5776 50.6653 12.4265 51.043 12.2377 51.3452L15.1083 51.874V51.8362ZM8.34719 54.518C8.87599 55.009 6.57191 55.3867 10.0847 55.3112C12.6909 55.2734 10.689 55.349 11.5956 54.6313C10.3113 53.3093 10.5379 53.3848 8.34719 54.518ZM6.26974 52.856C8.1961 53.6492 8.49827 53.8003 10.1602 52.856C10.0091 52.1006 10.9534 51.0808 8.53604 51.2696C7.36512 51.3452 6.723 52.2895 6.26974 52.856ZM13.8996 49.6077C15.6371 48.4367 14.6928 49.4566 15.5994 47.7568L13.5597 47.1525C11.2178 47.2658 11.52 47.1147 11.1045 49.5321L13.8996 49.5699V49.6077ZM9.14039 42.2422C10.5757 43.7908 12.6909 44.0174 14.3907 42.1666C12.9553 40.1647 10.4624 40.1269 9.14039 42.2422ZM10.0469 44.7351V46.5104L13.5975 46.5481C15.6371 45.4905 14.0885 46.8503 14.7306 44.8106C12.842 43.753 12.1621 43.5264 10.0469 44.7729V44.7351ZM4.83441 34.6878C5.43876 33.819 5.55207 33.4791 5.55207 31.9305C3.96566 30.8728 3.17245 30.6084 0.641738 30.4951C1.24609 32.4593 2.60587 34.4234 4.83441 34.65V34.6878ZM3.36131 50.0609C6.49637 51.1185 9.36702 51.9117 8.53604 47.6058C6.08088 47.3036 4.3056 48.2101 3.36131 50.0609ZM17.7901 8.4364C16.9592 10.5516 17.639 9.07852 16.6948 9.72064C16.7325 12.4402 16.7325 10.6272 17.3746 11.4581C20.0187 11.4959 22.1717 10.6272 22.4361 8.39863H17.8279L17.7901 8.4364ZM5.81647 38.5028C5.70316 36.312 6.64745 35.7076 0.188477 34.7633C1.01946 37.6718 2.94582 38.8049 5.81647 38.5028ZM8.80045 39.5981C11.4822 40.3158 12.5399 39.4093 13.7486 37.6718C12.6909 36.8786 11.6333 36.3875 10.1225 36.6142C6.723 37.1052 8.80045 39.5604 8.80045 39.5981ZM5.81647 30.0041C6.79854 26.5291 5.13658 25.3582 1.77489 24.4894C2.49256 27.7378 2.71919 29.362 5.81647 30.0041ZM2.22815 44.2063C1.77489 46.0949 2.00152 46.0193 3.43685 46.6615C5.09881 47.3791 5.66539 47.0392 7.13849 46.5481L7.36512 44.4329C4.3056 42.6954 5.58984 43.9419 2.22815 44.2063ZM7.89392 24.225C8.23387 20.8256 7.13849 19.919 4.3056 19.1258C4.49446 22.1853 4.49446 23.1296 6.15642 25.0182C7.10072 24.6027 7.2518 24.6027 7.89392 24.225ZM0.377336 40.5047C2.22815 42.4688 3.09691 42.9976 6.38305 42.5066L6.19419 39.9003C4.0412 39.2582 2.11484 39.0693 0.377336 40.4669V40.5047ZM14.7684 10.0606L16.6192 7.18993L15.826 2.39291C14.3529 3.11058 14.3529 4.47036 13.9374 6.32118C13.8241 6.77444 13.5597 8.20977 13.5597 8.62526C13.7108 11.1182 13.8996 9.94727 14.7306 10.0606H14.7684ZM10.0847 18.6726C9.82029 15.7641 9.4048 14.7065 8.00724 13.0446C7.40289 13.7622 7.66729 12.9312 7.2518 14.1777C6.64745 16.1041 6.94963 17.9549 7.28957 19.7302C8.38496 19.7302 7.89392 20.1079 9.74474 18.8992C9.82029 18.8614 9.9336 18.7103 10.0469 18.6348L10.0847 18.6726ZM7.89392 34.9522C8.64936 35.2921 8.30941 35.481 9.48034 35.5188L12.842 34.3479C14.8439 32.9125 13.1064 34.3479 14.164 32.9125C11.9355 32.2326 11.2934 31.3639 8.49827 32.2326L7.85615 34.9522H7.89392ZM12.5776 13.4978L12.9176 10.1361C12.842 9.3807 12.9553 9.04075 12.6532 8.20977C12.0488 6.62335 12.1244 7.30325 11.7466 6.92553C10.0469 9.07852 8.53604 17.0484 12.5776 13.4978ZM9.36702 23.6584L9.59365 25.6603C11.9733 26.5291 14.0885 26.6802 16.0149 25.1693C14.5418 23.0919 11.86 22.6764 9.36702 23.6584ZM11.1423 19.2769L11.5578 21.5054C14.0885 21.8832 16.9592 21.3921 18.1679 18.8236C14.995 18.7103 13.7108 17.9171 11.1045 19.2769H11.1423ZM8.42273 29.2864L8.61159 30.6462C11.7844 30.9862 11.9355 30.1552 14.4284 30.0041C14.3907 28.4932 15.4483 28.6821 12.6909 27.8133C11.0668 27.2845 10.4624 27.4356 8.80045 27.5489L8.4605 29.2864H8.42273ZM14.1263 14.1399L13.4464 16.4818C15.0706 17.1239 15.6371 17.0484 17.3369 16.444C17.3746 16.4063 18.8855 15.8019 18.8855 15.7641C21.1518 14.3288 19.5654 15.8019 20.5475 13.8C17.8657 13.3467 16.5437 13.1201 14.1263 14.1399Z" fill="white"/>
</g>
<defs>
<clipPath id="clip0_239_15">
<rect width="24.325" height="66.3156" fill="white"/>
</clipPath>
</defs>
</svg>
