<svg width="387" height="118" viewBox="0 0 387 118" fill="none" xmlns="http://www.w3.org/2000/svg">
<path d="M78.0625 83L70.9375 56.8182H78.2841L82.3409 74.4091H82.5795L86.8068 56.8182H94.017L98.3125 74.3068H98.5341L102.523 56.8182H109.852L102.744 83H95.0568L90.5568 66.5341H90.233L85.733 83H78.0625ZM120.987 67.8636V83H113.726V48.0909H120.783V61.4375H121.089C121.68 59.892 122.635 58.6818 123.953 57.8068C125.271 56.9205 126.925 56.4773 128.913 56.4773C130.732 56.4773 132.317 56.875 133.669 57.6705C135.033 58.4545 136.089 59.5852 136.839 61.0625C137.601 62.5284 137.976 64.2841 137.964 66.3295V83H130.703V67.625C130.714 66.0114 130.305 64.7557 129.476 63.858C128.658 62.9602 127.51 62.5114 126.033 62.5114C125.044 62.5114 124.169 62.7216 123.408 63.142C122.658 63.5625 122.067 64.1761 121.635 64.983C121.214 65.7784 120.999 66.7386 120.987 67.8636ZM147.224 92.8182C146.304 92.8182 145.44 92.7443 144.634 92.5966C143.838 92.4602 143.179 92.2841 142.656 92.0682L144.293 86.6477C145.145 86.9091 145.912 87.0511 146.594 87.0739C147.287 87.0966 147.884 86.9375 148.384 86.5966C148.895 86.2557 149.31 85.6761 149.628 84.858L150.054 83.75L140.662 56.8182H148.298L153.719 76.0455H153.991L159.463 56.8182H167.151L156.974 85.8295C156.486 87.2386 155.821 88.4659 154.98 89.5114C154.151 90.5682 153.099 91.3807 151.827 91.9489C150.554 92.5284 149.02 92.8182 147.224 92.8182Z" fill="#027DBE"/>
<path d="M187.656 71.8523V56.8182H194.918V83H187.946V78.2443H187.673C187.082 79.7784 186.099 81.0114 184.724 81.9432C183.361 82.875 181.696 83.3409 179.73 83.3409C177.98 83.3409 176.44 82.9432 175.111 82.1477C173.781 81.3523 172.741 80.2216 171.991 78.7557C171.253 77.2898 170.878 75.5341 170.866 73.4886V56.8182H178.128V72.1932C178.139 73.7386 178.554 74.9602 179.372 75.858C180.19 76.7557 181.287 77.2045 182.662 77.2045C183.537 77.2045 184.355 77.0057 185.116 76.608C185.878 76.1989 186.491 75.5966 186.957 74.8011C187.435 74.0057 187.668 73.0227 187.656 71.8523ZM222.51 64.2841L215.862 64.6932C215.749 64.125 215.504 63.6136 215.129 63.1591C214.754 62.6932 214.26 62.3239 213.646 62.0511C213.044 61.767 212.322 61.625 211.482 61.625C210.357 61.625 209.408 61.8636 208.635 62.3409C207.862 62.8068 207.476 63.4318 207.476 64.2159C207.476 64.8409 207.726 65.3693 208.226 65.8011C208.726 66.233 209.584 66.5795 210.8 66.8409L215.538 67.7955C218.084 68.3182 219.982 69.1591 221.232 70.3182C222.482 71.4773 223.107 73 223.107 74.8864C223.107 76.6023 222.601 78.108 221.589 79.4034C220.589 80.6989 219.214 81.7102 217.464 82.4375C215.726 83.1534 213.72 83.5114 211.447 83.5114C207.982 83.5114 205.22 82.7898 203.163 81.3466C201.118 79.892 199.919 77.9148 199.567 75.4148L206.709 75.0398C206.925 76.0966 207.447 76.9034 208.277 77.4602C209.107 78.0057 210.169 78.2784 211.464 78.2784C212.737 78.2784 213.76 78.0341 214.533 77.5455C215.317 77.0455 215.714 76.4034 215.726 75.6193C215.714 74.9602 215.436 74.4205 214.891 74C214.345 73.5682 213.504 73.2386 212.368 73.0114L207.834 72.108C205.277 71.5966 203.374 70.7102 202.124 69.4489C200.885 68.1875 200.266 66.5795 200.266 64.625C200.266 62.9432 200.72 61.4943 201.629 60.2784C202.55 59.0625 203.839 58.125 205.499 57.4659C207.169 56.8068 209.124 56.4773 211.362 56.4773C214.669 56.4773 217.271 57.1761 219.169 58.5739C221.078 59.9716 222.192 61.875 222.51 64.2841ZM239.611 83.5114C236.918 83.5114 234.599 82.9659 232.656 81.875C230.724 80.7727 229.236 79.2159 228.19 77.2045C227.145 75.1818 226.622 72.7898 226.622 70.0284C226.622 67.3352 227.145 64.9716 228.19 62.9375C229.236 60.9034 230.707 59.3182 232.605 58.1818C234.514 57.0455 236.753 56.4773 239.321 56.4773C241.048 56.4773 242.656 56.7557 244.145 57.3125C245.645 57.858 246.952 58.6818 248.065 59.7841C249.19 60.8864 250.065 62.2727 250.69 63.9432C251.315 65.6023 251.628 67.5455 251.628 69.7727V71.767H229.52V67.267H244.793C244.793 66.2216 244.565 65.2955 244.111 64.4886C243.656 63.6818 243.026 63.0511 242.219 62.5966C241.423 62.1307 240.497 61.8977 239.44 61.8977C238.338 61.8977 237.361 62.1534 236.509 62.6648C235.668 63.1648 235.009 63.8409 234.531 64.6932C234.054 65.5341 233.81 66.4716 233.798 67.5057V71.7841C233.798 73.0795 234.037 74.1989 234.514 75.142C235.003 76.0852 235.69 76.8125 236.577 77.3239C237.463 77.8352 238.514 78.0909 239.73 78.0909C240.537 78.0909 241.276 77.9773 241.946 77.75C242.616 77.5227 243.19 77.1818 243.668 76.7273C244.145 76.2727 244.509 75.7159 244.759 75.0568L251.474 75.5C251.134 77.1136 250.435 78.5227 249.378 79.7273C248.332 80.9205 246.98 81.8523 245.321 82.5227C243.673 83.1818 241.77 83.5114 239.611 83.5114ZM256.366 83V56.8182H263.406V61.3864H263.679C264.156 59.7614 264.957 58.5341 266.082 57.7045C267.207 56.8636 268.503 56.4432 269.969 56.4432C270.332 56.4432 270.724 56.4659 271.145 56.5114C271.565 56.5568 271.935 56.6193 272.253 56.6989V63.142C271.912 63.0398 271.44 62.9489 270.838 62.8693C270.236 62.7898 269.685 62.75 269.185 62.75C268.116 62.75 267.162 62.983 266.321 63.4489C265.491 63.9034 264.832 64.5398 264.344 65.358C263.866 66.1761 263.628 67.1193 263.628 68.1875V83H256.366Z" fill="#079E4C"/>
<path d="M280.251 83.4432C279.126 83.4432 278.161 83.0455 277.354 82.25C276.558 81.4432 276.161 80.4773 276.161 79.3523C276.161 78.2386 276.558 77.2841 277.354 76.4886C278.161 75.6932 279.126 75.2955 280.251 75.2955C281.342 75.2955 282.297 75.6932 283.115 76.4886C283.933 77.2841 284.342 78.2386 284.342 79.3523C284.342 80.1023 284.149 80.7898 283.763 81.4148C283.388 82.0284 282.893 82.5227 282.28 82.8977C281.666 83.2614 280.99 83.4432 280.251 83.4432ZM302.134 83.5114C299.452 83.5114 297.145 82.9432 295.213 81.8068C293.293 80.6591 291.815 79.0682 290.781 77.0341C289.759 75 289.247 72.6591 289.247 70.0114C289.247 67.3295 289.764 64.9773 290.798 62.9545C291.844 60.9205 293.327 59.3352 295.247 58.1989C297.168 57.0511 299.452 56.4773 302.099 56.4773C304.384 56.4773 306.384 56.892 308.099 57.7216C309.815 58.5511 311.173 59.7159 312.173 61.2159C313.173 62.7159 313.724 64.4773 313.827 66.5H306.974C306.781 65.1932 306.27 64.142 305.44 63.3466C304.622 62.5398 303.548 62.1364 302.219 62.1364C301.094 62.1364 300.111 62.4432 299.27 63.0568C298.44 63.6591 297.793 64.5398 297.327 65.6989C296.861 66.858 296.628 68.2614 296.628 69.9091C296.628 71.5795 296.855 73 297.31 74.1705C297.776 75.3409 298.429 76.233 299.27 76.8466C300.111 77.4602 301.094 77.767 302.219 77.767C303.048 77.767 303.793 77.5966 304.452 77.2557C305.122 76.9148 305.673 76.4205 306.105 75.7727C306.548 75.1136 306.838 74.3239 306.974 73.4034H313.827C313.713 75.4034 313.168 77.1648 312.19 78.6875C311.224 80.1989 309.889 81.3807 308.185 82.233C306.48 83.0852 304.463 83.5114 302.134 83.5114ZM345.786 83V56.8182H352.707V61.4375H353.014C353.559 59.9034 354.468 58.6932 355.741 57.8068C357.014 56.9205 358.536 56.4773 360.309 56.4773C362.105 56.4773 363.633 56.9261 364.894 57.8239C366.156 58.7102 366.997 59.9148 367.417 61.4375H367.69C368.224 59.9375 369.19 58.7386 370.588 57.8409C371.997 56.9318 373.661 56.4773 375.582 56.4773C378.025 56.4773 380.008 57.2557 381.531 58.8125C383.065 60.358 383.832 62.5511 383.832 65.392V83H376.588V66.8239C376.588 65.3693 376.201 64.2784 375.428 63.5511C374.656 62.8239 373.69 62.4602 372.531 62.4602C371.213 62.4602 370.184 62.8807 369.445 63.7216C368.707 64.5511 368.338 65.6477 368.338 67.0114V83H361.298V66.6705C361.298 65.3864 360.928 64.3636 360.19 63.6023C359.463 62.8409 358.502 62.4602 357.309 62.4602C356.502 62.4602 355.775 62.6648 355.127 63.0739C354.491 63.4716 353.985 64.0341 353.61 64.7614C353.235 65.4773 353.048 66.3182 353.048 67.2841V83H345.786Z" fill="#D04646"/>
<g style="mix-blend-mode:darken">
<circle cx="330.026" cy="70.0263" r="11" transform="rotate(-30 330.026 70.0263)" fill="#D04646"/>
</g>
<circle cx="192.539" cy="22.5394" r="16.5" transform="rotate(-30 192.539 22.5394)" fill="#079E4C"/>
<circle cx="33.4676" cy="69.4676" r="24.5" transform="rotate(-30 33.4676 69.4676)" fill="#027DBE"/>
<path d="M219.112 20.512C219.112 20.512 240.5 21.4994 274.5 29.9993C308.5 38.4992 322 52.5 322 52.5" stroke="black"/>
<path d="M61 49.5C61 49.5 81.7776 36.5544 116 28.9998C150.222 21.4451 165.5 20.4999 165.5 20.4999" stroke="black"/>
<path d="M149.991 105H148.79C148.7 104.553 148.538 104.139 148.304 103.76C148.074 103.376 147.784 103.042 147.435 102.756C147.085 102.471 146.689 102.249 146.246 102.092C145.803 101.934 145.323 101.855 144.808 101.855C143.981 101.855 143.227 102.07 142.545 102.501C141.867 102.931 141.324 103.564 140.915 104.399C140.51 105.23 140.308 106.249 140.308 107.455C140.308 108.669 140.51 109.692 140.915 110.523C141.324 111.354 141.867 111.984 142.545 112.415C143.227 112.841 143.981 113.054 144.808 113.054C145.323 113.054 145.803 112.975 146.246 112.817C146.689 112.66 147.085 112.44 147.435 112.159C147.784 111.874 148.074 111.539 148.304 111.156C148.538 110.772 148.7 110.357 148.79 109.909H149.991C149.885 110.51 149.685 111.07 149.391 111.59C149.101 112.106 148.73 112.558 148.278 112.945C147.831 113.333 147.315 113.636 146.732 113.853C146.148 114.07 145.506 114.179 144.808 114.179C143.708 114.179 142.732 113.904 141.88 113.354C141.028 112.8 140.359 112.021 139.873 111.015C139.391 110.009 139.151 108.822 139.151 107.455C139.151 106.087 139.391 104.9 139.873 103.894C140.359 102.888 141.028 102.111 141.88 101.561C142.732 101.007 143.708 100.73 144.808 100.73C145.506 100.73 146.148 100.839 146.732 101.056C147.315 101.269 147.831 101.572 148.278 101.964C148.73 102.352 149.101 102.803 149.391 103.319C149.685 103.835 149.885 104.395 149.991 105ZM156.379 114.205C155.531 114.205 154.781 113.989 154.129 113.559C153.481 113.129 152.974 112.534 152.607 111.776C152.241 111.013 152.058 110.133 152.058 109.136C152.058 108.13 152.241 107.246 152.607 106.483C152.974 105.716 153.481 105.119 154.129 104.693C154.781 104.263 155.531 104.048 156.379 104.048C157.227 104.048 157.975 104.263 158.622 104.693C159.27 105.124 159.777 105.72 160.144 106.483C160.514 107.246 160.7 108.13 160.7 109.136C160.7 110.133 160.517 111.013 160.15 111.776C159.784 112.534 159.274 113.129 158.622 113.559C157.975 113.989 157.227 114.205 156.379 114.205ZM156.379 113.163C157.061 113.163 157.638 112.979 158.111 112.613C158.584 112.246 158.942 111.759 159.185 111.149C159.432 110.54 159.556 109.869 159.556 109.136C159.556 108.403 159.432 107.729 159.185 107.116C158.942 106.502 158.584 106.01 158.111 105.639C157.638 105.268 157.061 105.083 156.379 105.083C155.701 105.083 155.124 105.268 154.646 105.639C154.173 106.01 153.813 106.502 153.566 107.116C153.323 107.729 153.202 108.403 153.202 109.136C153.202 109.869 153.323 110.54 153.566 111.149C153.813 111.759 154.173 112.246 154.646 112.613C155.119 112.979 155.697 113.163 156.379 113.163ZM163.197 114V104.182H164.303V105.69H164.406C164.602 105.183 164.928 104.785 165.384 104.495C165.844 104.201 166.396 104.054 167.039 104.054C167.717 104.054 168.273 104.214 168.707 104.533C169.146 104.849 169.474 105.283 169.692 105.837H169.775C169.996 105.292 170.357 104.859 170.855 104.54C171.358 104.216 171.967 104.054 172.683 104.054C173.595 104.054 174.315 104.342 174.844 104.917C175.372 105.488 175.636 106.323 175.636 107.423V114H174.499V107.423C174.499 106.647 174.3 106.065 173.904 105.678C173.508 105.29 172.986 105.096 172.338 105.096C171.588 105.096 171.011 105.326 170.606 105.786C170.201 106.246 169.999 106.83 169.999 107.538V114H168.835V107.32C168.835 106.656 168.65 106.119 168.279 105.71C167.908 105.3 167.386 105.096 166.713 105.096C166.261 105.096 165.854 105.207 165.492 105.428C165.134 105.65 164.851 105.959 164.642 106.355C164.438 106.747 164.335 107.199 164.335 107.71V114H163.197ZM178.661 114V104.182H179.806V114H178.661ZM179.243 102.494C179.009 102.494 178.808 102.415 178.642 102.258C178.476 102.096 178.393 101.902 178.393 101.676C178.393 101.45 178.476 101.259 178.642 101.101C178.808 100.939 179.009 100.858 179.243 100.858C179.477 100.858 179.678 100.939 179.844 101.101C180.01 101.259 180.093 101.45 180.093 101.676C180.093 101.902 180.01 102.096 179.844 102.258C179.678 102.415 179.477 102.494 179.243 102.494ZM183.952 107.864V114H182.815V104.182H183.92V105.722H184.023C184.253 105.219 184.611 104.817 185.097 104.514C185.587 104.207 186.192 104.054 186.912 104.054C187.572 104.054 188.152 104.192 188.651 104.469C189.153 104.742 189.543 105.145 189.82 105.678C190.102 106.21 190.242 106.864 190.242 107.64V114H189.104V107.71C189.104 106.905 188.879 106.268 188.427 105.799C187.979 105.33 187.379 105.096 186.624 105.096C186.109 105.096 185.651 105.207 185.25 105.428C184.849 105.65 184.532 105.969 184.298 106.387C184.067 106.8 183.952 107.293 183.952 107.864ZM196.984 117.886C196.315 117.886 195.729 117.799 195.226 117.624C194.724 117.454 194.3 117.219 193.954 116.921C193.609 116.623 193.341 116.288 193.149 115.918L194.082 115.304C194.223 115.551 194.41 115.794 194.645 116.033C194.883 116.271 195.192 116.469 195.572 116.627C195.955 116.785 196.426 116.864 196.984 116.864C197.854 116.864 198.555 116.646 199.087 116.212C199.624 115.777 199.893 115.102 199.893 114.185V111.974H199.79C199.658 112.272 199.469 112.57 199.221 112.869C198.974 113.163 198.65 113.408 198.25 113.604C197.854 113.8 197.361 113.898 196.773 113.898C195.989 113.898 195.292 113.704 194.683 113.316C194.078 112.928 193.601 112.374 193.251 111.654C192.906 110.93 192.733 110.067 192.733 109.065C192.733 108.072 192.902 107.199 193.238 106.445C193.579 105.69 194.055 105.102 194.664 104.68C195.273 104.259 195.983 104.048 196.792 104.048C197.393 104.048 197.892 104.154 198.288 104.367C198.684 104.576 199.002 104.836 199.241 105.147C199.483 105.458 199.673 105.761 199.809 106.055H199.925V104.182H201.037V114.256C201.037 115.087 200.86 115.771 200.506 116.308C200.153 116.844 199.671 117.241 199.062 117.496C198.452 117.756 197.76 117.886 196.984 117.886ZM196.907 112.856C197.538 112.856 198.077 112.705 198.525 112.402C198.972 112.095 199.315 111.656 199.554 111.085C199.792 110.514 199.912 109.835 199.912 109.046C199.912 108.279 199.795 107.599 199.56 107.007C199.326 106.411 198.985 105.942 198.537 105.601C198.094 105.256 197.551 105.083 196.907 105.083C196.251 105.083 195.697 105.26 195.246 105.614C194.794 105.967 194.453 106.445 194.223 107.045C193.993 107.642 193.878 108.309 193.878 109.046C193.878 109.796 193.995 110.459 194.229 111.034C194.464 111.605 194.807 112.053 195.258 112.376C195.71 112.696 196.26 112.856 196.907 112.856ZM215.708 106.336L214.666 106.63C214.564 106.336 214.419 106.07 214.232 105.831C214.044 105.592 213.799 105.403 213.496 105.262C213.198 105.121 212.827 105.051 212.384 105.051C211.719 105.051 211.174 105.209 210.748 105.524C210.322 105.839 210.109 106.246 210.109 106.745C210.109 107.167 210.254 107.51 210.543 107.774C210.837 108.034 211.289 108.241 211.898 108.394L213.381 108.759C214.204 108.959 214.82 109.276 215.229 109.711C215.642 110.146 215.849 110.691 215.849 111.347C215.849 111.901 215.695 112.393 215.388 112.824C215.082 113.254 214.653 113.593 214.104 113.84C213.558 114.083 212.925 114.205 212.205 114.205C211.246 114.205 210.456 113.989 209.834 113.559C209.212 113.124 208.813 112.498 208.638 111.68L209.732 111.411C209.872 111.995 210.147 112.436 210.556 112.734C210.969 113.033 211.513 113.182 212.186 113.182C212.94 113.182 213.543 113.013 213.995 112.677C214.447 112.336 214.673 111.91 214.673 111.398C214.673 111.002 214.54 110.67 214.276 110.401C214.012 110.129 213.612 109.928 213.075 109.8L211.47 109.417C210.618 109.212 209.987 108.888 209.578 108.445C209.169 108.002 208.964 107.452 208.964 106.796C208.964 106.255 209.112 105.78 209.406 105.371C209.7 104.957 210.104 104.634 210.62 104.399C211.136 104.165 211.724 104.048 212.384 104.048C213.283 104.048 214.001 104.252 214.538 104.661C215.08 105.066 215.469 105.624 215.708 106.336ZM222.156 114.205C221.308 114.205 220.558 113.989 219.906 113.559C219.258 113.129 218.751 112.534 218.385 111.776C218.018 111.013 217.835 110.133 217.835 109.136C217.835 108.13 218.018 107.246 218.385 106.483C218.751 105.716 219.258 105.119 219.906 104.693C220.558 104.263 221.308 104.048 222.156 104.048C223.004 104.048 223.752 104.263 224.4 104.693C225.047 105.124 225.555 105.72 225.921 106.483C226.292 107.246 226.477 108.13 226.477 109.136C226.477 110.133 226.294 111.013 225.927 111.776C225.561 112.534 225.052 113.129 224.4 113.559C223.752 113.989 223.004 114.205 222.156 114.205ZM222.156 113.163C222.838 113.163 223.415 112.979 223.888 112.613C224.361 112.246 224.719 111.759 224.962 111.149C225.209 110.54 225.333 109.869 225.333 109.136C225.333 108.403 225.209 107.729 224.962 107.116C224.719 106.502 224.361 106.01 223.888 105.639C223.415 105.268 222.838 105.083 222.156 105.083C221.479 105.083 220.901 105.268 220.424 105.639C219.951 106.01 219.591 106.502 219.344 107.116C219.101 107.729 218.979 108.403 218.979 109.136C218.979 109.869 219.101 110.54 219.344 111.149C219.591 111.759 219.951 112.246 220.424 112.613C220.897 112.979 221.474 113.163 222.156 113.163ZM232.791 114.205C231.943 114.205 231.193 113.989 230.541 113.559C229.893 113.129 229.386 112.534 229.02 111.776C228.653 111.013 228.47 110.133 228.47 109.136C228.47 108.13 228.653 107.246 229.02 106.483C229.386 105.716 229.893 105.119 230.541 104.693C231.193 104.263 231.943 104.048 232.791 104.048C233.639 104.048 234.387 104.263 235.034 104.693C235.682 105.124 236.189 105.72 236.556 106.483C236.926 107.246 237.112 108.13 237.112 109.136C237.112 110.133 236.929 111.013 236.562 111.776C236.196 112.534 235.686 113.129 235.034 113.559C234.387 113.989 233.639 114.205 232.791 114.205ZM232.791 113.163C233.473 113.163 234.05 112.979 234.523 112.613C234.996 112.246 235.354 111.759 235.597 111.149C235.844 110.54 235.968 109.869 235.968 109.136C235.968 108.403 235.844 107.729 235.597 107.116C235.354 106.502 234.996 106.01 234.523 105.639C234.05 105.268 233.473 105.083 232.791 105.083C232.113 105.083 231.536 105.268 231.059 105.639C230.586 106.01 230.225 106.502 229.978 107.116C229.735 107.729 229.614 108.403 229.614 109.136C229.614 109.869 229.735 110.54 229.978 111.149C230.225 111.759 230.586 112.246 231.059 112.613C231.532 112.979 232.109 113.163 232.791 113.163ZM240.747 107.864V114H239.61V104.182H240.715V105.722H240.818C241.048 105.219 241.406 104.817 241.892 104.514C242.382 104.207 242.987 104.054 243.707 104.054C244.367 104.054 244.947 104.192 245.445 104.469C245.948 104.742 246.338 105.145 246.615 105.678C246.896 106.21 247.037 106.864 247.037 107.64V114H245.899V107.71C245.899 106.905 245.673 106.268 245.222 105.799C244.774 105.33 244.173 105.096 243.419 105.096C242.904 105.096 242.445 105.207 242.045 105.428C241.644 105.65 241.327 105.969 241.093 106.387C240.862 106.8 240.747 107.293 240.747 107.864Z" fill="black"/>
</svg>
