<svg width="393" height="67" viewBox="0 0 393 67" fill="none" xmlns="http://www.w3.org/2000/svg">
<path d="M70 30.1456C70 50.2105 54.33 66.4763 35 66.4763C15.67 66.4763 0 50.2105 0 30.1456C0 14.4001 9.64963 30.9572 23.1452 25.915C25.4924 25.0381 18.3378 18.323 20.8871 9.19063C22.3587 3.91892 31.6129 15.332 35 15.332C38.3871 15.332 47.6413 3.91892 49.1129 9.19063C51.6622 18.323 44.5076 25.0381 46.8548 25.915C60.3504 30.9572 70 14.4001 70 30.1456Z" fill="black"/>
<circle cx="35" cy="31" r="31" fill="url(#paint0_linear_225_7)"/>
<path d="M66 31.0002C66 48.121 52.1208 62.0002 35 62.0002C17.8792 62.0002 4 48.121 4 31.0002C4 30.9132 4.00036 30.8264 4.00107 30.7396C4.14101 46.3695 17.9661 58.0001 35 58.0001C52.0339 58.0001 65.859 46.3695 65.9989 30.7396C65.9996 30.8264 66 30.9132 66 31.0002Z" fill="white" fill-opacity="0.3"/>
<path d="M65.3799 24.8C65.2571 24.1955 65.1168 23.5974 64.9595 23.0062C64.9452 23.0054 64.9309 23.0046 64.9165 23.0039C65.0914 23.5952 65.2461 24.1941 65.3799 24.8Z" fill="white" fill-opacity="0.3"/>
<path d="M4.62014 24.8C4.75247 24.2007 4.90526 23.6082 5.07782 23.0231C5.06419 23.0217 5.0506 23.0204 5.03705 23.0192C4.88111 23.6061 4.74195 24.1999 4.62014 24.8Z" fill="white" fill-opacity="0.3"/>
<circle cx="24" cy="37" r="4" fill="#8EBBFF" fill-opacity="0.5"/>
<circle cx="43.5" cy="19.5" r="10.5" fill="#8DC2FF" fill-opacity="0.5"/>
<path d="M264.749 13.5572H268.342V39.6096C268.342 42.2866 267.714 44.6818 266.459 46.7952C265.204 48.8957 263.455 50.5544 261.214 51.7713C258.985 52.9752 256.365 53.1545 253.433 53.5772C250.5 54 244.968 54.1004 238 53.5772C234.341 53.3025 231.389 52.171 230.617 51.752C228.376 50.5352 226.628 48.8765 225.372 46.7759C224.117 44.6754 223.489 42.2866 223.489 39.6096V13.5572H227.082V39.3598C227.082 41.4476 227.55 43.3113 228.485 44.9507C229.42 46.5774 230.733 47.8583 232.423 48.7933C232.939 49.0761 235.13 49.9985 238 50.1958C240 50.5 250.5 50.5 253.433 50.1958C256.365 49.8916 257.704 49.7283 259.408 48.7933C261.112 47.8583 262.424 46.5774 263.347 44.9507C264.282 43.3113 264.749 41.4476 264.749 39.3598V13.5572Z" fill="black"/>
<path d="M300.149 23.3941C299.931 21.2038 298.964 19.4619 297.247 18.1682C295.531 16.8746 293.373 16.2277 290.773 16.2277C288.941 16.2277 287.327 16.5415 285.931 17.1692C284.548 17.7968 283.459 18.6678 282.665 19.7821C281.884 20.8836 281.493 22.1388 281.493 23.5478C281.493 24.5853 281.717 25.4947 282.165 26.276C282.614 27.0573 283.216 27.7297 283.971 28.2933C284.74 28.8441 285.585 29.318 286.508 29.7151C287.443 30.1121 288.384 30.4451 289.332 30.7141L293.482 31.9053C294.737 32.2511 295.992 32.693 297.247 33.231C298.503 33.7689 299.649 34.4478 300.687 35.2675C301.737 36.0745 302.576 37.0671 303.203 38.2455C303.844 39.4111 304.164 40.8136 304.164 42.4531C304.164 44.5537 303.62 46.4429 302.531 48.1208C301.442 49.7987 299.88 51.1308 297.843 52.1171C295.806 53.0905 293.366 53.5772 290.523 53.5772C287.846 53.5772 285.521 53.1354 283.549 52.2516C281.576 51.355 280.026 50.119 278.899 48.5435C277.772 46.9681 277.138 45.1429 276.997 43.0679H280.686C280.814 44.6177 281.327 45.9306 282.223 47.0065C283.12 48.0824 284.285 48.9022 285.72 49.4657C287.154 50.0165 288.755 50.2919 290.523 50.2919C292.483 50.2919 294.225 49.9653 295.749 49.312C297.286 48.646 298.49 47.7238 299.361 46.5454C300.245 45.3542 300.687 43.9709 300.687 42.3954C300.687 41.0634 300.341 39.949 299.649 39.0524C298.957 38.143 297.99 37.3809 296.748 36.7661C295.518 36.1513 294.09 35.607 292.463 35.133L287.756 33.7497C284.67 32.8275 282.274 31.5531 280.571 29.9264C278.867 28.2997 278.016 26.2247 278.016 23.7015C278.016 21.5881 278.579 19.7309 279.706 18.1298C280.846 16.5159 282.383 15.2607 284.317 14.3641C286.264 13.4547 288.448 13 290.869 13C293.315 13 295.48 13.4483 297.363 14.3449C299.246 15.2415 300.738 16.4775 301.839 18.0529C302.954 19.6156 303.549 21.396 303.626 23.3941H300.149Z" fill="black"/>
<path d="M312.81 52.9048V13.5572H355.669V16.7849H316.403V31.5979H354.458V34.8256H316.403V49.6771H356.053V52.9048H312.81Z" fill="black"/>
<path d="M364.968 52.9048V13.5572H377.667C380.46 13.5572 382.791 14.0631 384.661 15.075C386.544 16.074 387.959 17.4638 388.907 19.2441C389.867 21.0117 390.348 23.0418 390.348 25.3346C390.348 27.6273 389.867 29.651 388.907 31.4058C387.959 33.1605 386.55 34.531 384.68 35.5173C382.81 36.5036 380.492 36.9967 377.725 36.9967H366.908V33.7113H377.629C379.678 33.7113 381.382 33.3719 382.739 32.693C384.11 32.0142 385.128 31.0471 385.794 29.7919C386.473 28.5367 386.813 27.0509 386.813 25.3346C386.813 23.6182 386.473 22.1196 385.794 20.8388C385.115 19.5451 384.091 18.5461 382.72 17.8416C381.363 17.1371 379.646 16.7849 377.571 16.7849H368.56V52.9048H364.968ZM382.317 35.1523L392 52.9048H387.85L378.263 35.1523H382.317Z" fill="black"/>
<path d="M90.7783 53.1783L80 13.8307H83.6504L92.5651 47.6643H92.8725L101.787 13.8307H105.937L114.852 47.6643H115.159L124.074 13.8307H127.744L116.965 53.1783H113.123L103.997 19.8058H103.747L94.6209 53.1783H90.7783Z" fill="black"/>
<path d="M134.237 53.1783V13.8307H137.83V31.8714H175.184V13.8307H178.777V53.1783H175.184V35.0992H137.83V53.1783H134.237Z" fill="black"/>
<path d="M185.52 13.8307H189.67L201.333 32.5054H201.678L213.34 13.8307H217.49L203.292 36.1366V53.1783H199.719V36.1366L185.52 13.8307Z" fill="black"/>
<path d="M264.749 13.5572H268.342V39.6096C268.342 42.2866 267.714 44.6818 266.459 46.7952C265.204 48.8957 263.455 50.5544 261.214 51.7713C258.985 52.9752 256.365 53.1545 253.433 53.5772C250.5 54 244.968 54.1004 238 53.5772C234.341 53.3025 231.389 52.171 230.617 51.752C228.376 50.5352 226.628 48.8765 225.372 46.7759C224.117 44.6754 223.489 42.2866 223.489 39.6096V13.5572H227.082V39.3598C227.082 41.4476 227.55 43.3113 228.485 44.9507C229.42 46.5774 230.733 47.8583 232.423 48.7933C232.939 49.0761 235.13 49.9985 238 50.1958C240 50.5 250.5 50.5 253.433 50.1958C256.365 49.8916 257.704 49.7283 259.408 48.7933C261.112 47.8583 262.424 46.5774 263.347 44.9507C264.282 43.3113 264.749 41.4476 264.749 39.3598V13.5572Z" stroke="black"/>
<path d="M300.149 23.3941C299.931 21.2038 298.964 19.4619 297.247 18.1682C295.531 16.8746 293.373 16.2277 290.773 16.2277C288.941 16.2277 287.327 16.5415 285.931 17.1692C284.548 17.7968 283.459 18.6678 282.665 19.7821C281.884 20.8836 281.493 22.1388 281.493 23.5478C281.493 24.5853 281.717 25.4947 282.165 26.276C282.614 27.0573 283.216 27.7297 283.971 28.2933C284.74 28.8441 285.585 29.318 286.508 29.7151C287.443 30.1121 288.384 30.4451 289.332 30.7141L293.482 31.9053C294.737 32.2511 295.992 32.693 297.247 33.231C298.503 33.7689 299.649 34.4478 300.687 35.2675C301.737 36.0745 302.576 37.0671 303.203 38.2455C303.844 39.4111 304.164 40.8136 304.164 42.4531C304.164 44.5537 303.62 46.4429 302.531 48.1208C301.442 49.7987 299.88 51.1308 297.843 52.1171C295.806 53.0905 293.366 53.5772 290.523 53.5772C287.846 53.5772 285.521 53.1354 283.549 52.2516C281.576 51.355 280.026 50.119 278.899 48.5435C277.772 46.9681 277.138 45.1429 276.997 43.0679H280.686C280.814 44.6177 281.327 45.9306 282.223 47.0065C283.12 48.0824 284.285 48.9022 285.72 49.4657C287.154 50.0165 288.755 50.2919 290.523 50.2919C292.483 50.2919 294.225 49.9653 295.749 49.312C297.286 48.646 298.49 47.7238 299.361 46.5454C300.245 45.3542 300.687 43.9709 300.687 42.3954C300.687 41.0634 300.341 39.949 299.649 39.0524C298.957 38.143 297.99 37.3809 296.748 36.7661C295.518 36.1513 294.09 35.607 292.463 35.133L287.756 33.7497C284.67 32.8275 282.274 31.5531 280.571 29.9264C278.867 28.2997 278.016 26.2247 278.016 23.7015C278.016 21.5881 278.579 19.7309 279.706 18.1298C280.846 16.5159 282.383 15.2607 284.317 14.3641C286.264 13.4547 288.448 13 290.869 13C293.315 13 295.48 13.4483 297.363 14.3449C299.246 15.2415 300.738 16.4775 301.839 18.0529C302.954 19.6156 303.549 21.396 303.626 23.3941H300.149Z" stroke="black"/>
<path d="M312.81 52.9048V13.5572H355.669V16.7849H316.403V31.5979H354.458V34.8256H316.403V49.6771H356.053V52.9048H312.81Z" stroke="black"/>
<path d="M364.968 52.9048V13.5572H377.667C380.46 13.5572 382.791 14.0631 384.661 15.075C386.544 16.074 387.959 17.4638 388.907 19.2441C389.867 21.0117 390.348 23.0418 390.348 25.3346C390.348 27.6273 389.867 29.651 388.907 31.4058C387.959 33.1605 386.55 34.531 384.68 35.5173C382.81 36.5036 380.492 36.9967 377.725 36.9967H366.908V33.7113H377.629C379.678 33.7113 381.382 33.3719 382.739 32.693C384.11 32.0142 385.128 31.0471 385.794 29.7919C386.473 28.5367 386.813 27.0509 386.813 25.3346C386.813 23.6182 386.473 22.1196 385.794 20.8388C385.115 19.5451 384.091 18.5461 382.72 17.8416C381.363 17.1371 379.646 16.7849 377.571 16.7849H368.56V52.9048H364.968ZM382.317 35.1523L392 52.9048H387.85L378.263 35.1523H382.317Z" stroke="black"/>
<path d="M90.7783 53.1783L80 13.8307H83.6504L92.5651 47.6643H92.8725L101.787 13.8307H105.937L114.852 47.6643H115.159L124.074 13.8307H127.744L116.965 53.1783H113.123L103.997 19.8058H103.747L94.6209 53.1783H90.7783Z" stroke="black"/>
<path d="M134.237 53.1783V13.8307H137.83V31.8714H175.184V13.8307H178.777V53.1783H175.184V35.0992H137.83V53.1783H134.237Z" stroke="black"/>
<path d="M185.52 13.8307H189.67L201.333 32.5054H201.678L213.34 13.8307H217.49L203.292 36.1366V53.1783H199.719V36.1366L185.52 13.8307Z" stroke="black"/>
<defs>
<linearGradient id="paint0_linear_225_7" x1="35" y1="62" x2="35" y2="-4.61936e-07" gradientUnits="userSpaceOnUse">
<stop stop-color="#0111A2"/>
<stop offset="0.526042" stop-color="#636ED3"/>
<stop offset="1" stop-color="#C8CDFF"/>
</linearGradient>
</defs>
</svg>
