<svg width="122" height="122" viewBox="0 0 122 122" fill="none" xmlns="http://www.w3.org/2000/svg">
<g clip-path="url(#clip0_2_64)">
<path fill-rule="evenodd" clip-rule="evenodd" d="M60.96 0.188965C94.369 0.188965 121.731 27.551 121.731 60.96C121.731 94.369 94.369 121.731 60.96 121.731C27.551 121.731 0.188965 94.369 0.188965 60.96C0.188965 27.551 27.551 0.188965 60.96 0.188965Z" fill="#E30E12"/>
<path fill-rule="evenodd" clip-rule="evenodd" d="M54.8957 56.5151C54.8411 56.0646 54.7278 55.6278 54.5584 55.2256C54.301 54.6142 53.9596 54.096 53.5127 53.679L53.5001 53.6672L53.488 53.655C53.0645 53.2315 52.5324 52.8791 51.8976 52.5763C51.3181 52.3356 50.6647 52.2094 49.9623 52.2094C49.2583 52.2094 48.6349 52.3362 48.0449 52.5846C47.4541 52.8334 46.9561 53.1733 46.4743 53.655C46.0509 54.0785 45.6984 54.6107 45.3956 55.2455C45.1527 55.8296 45.0288 56.4468 45.0288 57.1429V61.056H54.8957V56.5151ZM46.8424 49.7633C47.8371 49.3308 48.8798 49.1134 49.9623 49.1134C51.0797 49.1134 52.1227 49.3297 53.1199 49.7633C54.0879 50.1841 54.9529 50.742 55.6958 51.4849C56.4279 52.217 56.9901 53.04 57.4175 54.0231C57.85 55.0177 58.0673 56.0605 58.0673 57.1429V72.5798H54.9335V64.1898H45.0666V72.5798H41.9328V57.1429C41.9328 56.0315 42.1468 54.9846 42.5858 54.0157C43.0129 53.0358 43.574 52.2152 44.3043 51.4849C45.0454 50.7438 45.9061 50.1887 46.8274 49.77L46.8349 49.7665L46.8424 49.7633ZM92.6702 50.0723C94.0471 49.4464 95.5487 49.1134 97.1278 49.1134C98.3767 49.1134 99.5415 49.3222 100.656 49.6939C101.786 50.0703 102.778 50.6107 103.708 51.2578L103.717 51.2638L103.725 51.2699C104.64 51.9354 105.47 52.7647 106.136 53.6796C106.839 54.6322 107.372 55.6612 107.778 56.7578L108.277 58.1051H104.949L104.7 57.4695C104.395 56.6902 103.99 55.9829 103.486 55.3438C102.965 54.6843 102.4 54.1265 101.76 53.7108L101.736 53.6948L101.712 53.6774C101.109 53.2332 100.387 52.8969 99.5769 52.614C98.8018 52.38 97.9618 52.2472 97.1278 52.2472C95.9933 52.2472 94.9604 52.4781 93.9478 52.9152C92.9201 53.3964 92.054 54.0019 91.3268 54.7952L91.3196 54.803L91.3123 54.8107C90.5714 55.5852 89.9627 56.5313 89.557 57.5795L89.552 57.5924L89.5466 57.6052C89.1145 58.6357 88.9064 59.7861 88.9064 61.0356C88.9064 62.2851 89.1145 63.4354 89.5466 64.466C90.0016 65.5509 90.5831 66.4981 91.3123 67.2605C92.0605 68.0427 92.9422 68.6868 93.9604 69.1619C94.9422 69.6201 96.0036 69.824 97.1278 69.824C97.9638 69.824 98.7596 69.6906 99.5204 69.4259C100.324 69.1465 101.021 68.8098 101.637 68.356C102.285 67.8786 102.867 67.3324 103.42 66.6772C103.936 66.0219 104.367 65.3172 104.662 64.5639L104.911 63.9283H108.24L107.741 65.2756C107.327 66.3931 106.75 67.4203 106.057 68.3571C105.347 69.3179 104.52 70.0998 103.635 70.7838C102.694 71.5108 101.644 72.0093 100.592 72.3736L100.581 72.3774C99.4719 72.747 98.3446 72.9577 97.1278 72.9577C95.5431 72.9577 94.0834 72.6224 92.6803 72.0034L92.6702 71.9989C91.3014 71.3768 90.1027 70.5071 89.0752 69.4385C88.0288 68.3503 87.2501 67.0694 86.6471 65.6623L86.6423 65.6511L86.6377 65.6398C86.0644 64.2064 85.7348 62.6446 85.7348 60.9978C85.7348 59.3691 86.02 57.8386 86.6423 56.3823C87.2216 54.9382 88.0488 53.7002 89.0752 52.6327C90.1027 51.5641 91.3015 50.6945 92.6702 50.0723ZM14.6841 49.6047H17.8179V72.542H14.6841V49.6047ZM21.3734 49.6047H38.8685V52.7385H31.8012V72.5798H28.6675V52.7385H21.3734V49.6047ZM61.8874 49.6047H65.0212V65.1943L65.059 65.2321V65.6463C65.059 66.2665 65.1579 66.8158 65.3276 67.2402L65.3317 67.2503L65.3355 67.2604C65.5067 67.7171 65.7626 68.0899 66.0889 68.4162C66.3991 68.7264 66.8075 68.9929 67.2549 69.1734C67.7355 69.3522 68.2549 69.446 68.8587 69.446H75.641V72.5798H68.8587C67.8778 72.5798 66.9113 72.4098 66.0519 72.0479C65.2297 71.7017 64.4875 71.2232 63.8699 70.6497L63.8563 70.6371L63.8432 70.624C63.2309 70.0117 62.7292 69.2912 62.4074 68.3869C62.0547 67.5379 61.8874 66.619 61.8874 65.6085V49.6047ZM79.1966 49.6425H82.3304V72.5798H79.1966V49.6425Z" fill="url(#paint0_linear_2_64)"/>
</g>
<defs>
<linearGradient id="paint0_linear_2_64" x1="61.2623" y1="50.1134" x2="61.2623" y2="71.9577" gradientUnits="userSpaceOnUse">
<stop stop-color="white"/>
<stop offset="1" stop-color="white"/>
</linearGradient>
<clipPath id="clip0_2_64">
<rect width="121.92" height="121.92" fill="white"/>
</clipPath>
</defs>
</svg>
